<?xml version="1.0" encoding="UTF-8" standalone="no"?>
<!DOCTYPE svg PUBLIC "-//W3C//DTD SVG 1.1//EN"
 "http://www.w3.org/Graphics/SVG/1.1/DTD/svg11.dtd">
<!-- Generated by graphviz version 2.40.1 (20161225.0304)
 -->
<!-- Title: dependencies Pages: 1 -->
<svg width="504pt" height="284pt"
 viewBox="0.00 0.00 504.00 284.00" xmlns="http://www.w3.org/2000/svg" xmlns:xlink="http://www.w3.org/1999/xlink">
<g id="graph0" class="graph" transform="scale(1 1) rotate(0) translate(4 280)">
<title>dependencies</title>
<polygon fill="#ffffff" stroke="transparent" points="-4,4 -4,-280 500,-280 500,4 -4,4"/>
<text text-anchor="start" x="227.0091" y="-42.4" font-family="sans-serif" font-weight="bold" font-size="14.00" fill="#000000">Legend</text>
<polygon fill="#ffffb3" stroke="transparent" points="14,-10 14,-30 34,-30 34,-10 14,-10"/>
<text text-anchor="start" x="37.629" y="-15.4" font-family="sans-serif" font-size="14.00" fill="#000000"> &#160;Declarations</text>
<polygon fill="#8dd3c7" stroke="transparent" points="127,-10 127,-30 147,-30 147,-10 127,-10"/>
<text text-anchor="start" x="150.7251" y="-15.4" font-family="sans-serif" font-size="14.00" fill="#000000"> &#160;Module</text>
<polygon fill="#80b1d3" stroke="transparent" points="213,-10 213,-30 233,-30 233,-10 213,-10"/>
<text text-anchor="start" x="236.7812" y="-15.4" font-family="sans-serif" font-size="14.00" fill="#000000"> &#160;Bootstrap</text>
<polygon fill="#fdb462" stroke="transparent" points="310,-10 310,-30 330,-30 330,-10 310,-10"/>
<text text-anchor="start" x="333.6732" y="-15.4" font-family="sans-serif" font-size="14.00" fill="#000000"> &#160;Providers</text>
<polygon fill="#fb8072" stroke="transparent" points="406,-10 406,-30 426,-30 426,-10 406,-10"/>
<text text-anchor="start" x="429.7258" y="-15.4" font-family="sans-serif" font-size="14.00" fill="#000000"> &#160;Exports</text>
<g id="clust1" class="cluster">
<title>cluster_NguiInviewModule</title>
<polygon fill="none" stroke="#000000" stroke-dasharray="1,5" points="78,-70 78,-268 418,-268 418,-70 78,-70"/>
</g>
<g id="clust2" class="cluster">
<title>cluster_NguiInviewModule_declarations</title>
<polygon fill="none" stroke="#000000" points="90,-78 90,-130 407,-130 407,-78 90,-78"/>
</g>
<g id="clust6" class="cluster">
<title>cluster_NguiInviewModule_exports</title>
<polygon fill="none" stroke="#000000" points="86,-208 86,-260 410,-260 410,-208 86,-208"/>
</g>
<!-- NguiInviewComponent -->
<g id="node1" class="node">
<title>NguiInviewComponent</title>
<polygon fill="#ffffb3" stroke="#000000" points="399.2021,-122 250.7979,-122 250.7979,-86 399.2021,-86 399.2021,-122"/>
<text text-anchor="middle" x="325" y="-99.8" font-family="Times,serif" font-size="14.00" fill="#000000">NguiInviewComponent</text>
</g>
<!-- NguiInviewModule -->
<g id="node3" class="node">
<title>NguiInviewModule</title>
<polygon fill="#8dd3c7" stroke="#000000" points="229.4201,-187 226.4201,-191 205.4201,-191 202.4201,-187 102.5799,-187 102.5799,-151 229.4201,-151 229.4201,-187"/>
<text text-anchor="middle" x="166" y="-164.8" font-family="Times,serif" font-size="14.00" fill="#000000">NguiInviewModule</text>
</g>
<!-- NguiInviewComponent&#45;&gt;NguiInviewModule -->
<g id="edge1" class="edge">
<title>NguiInviewComponent&#45;&gt;NguiInviewModule</title>
<path fill="none" stroke="#000000" d="M349.7003,-122.0225C349.7003,-139.3734 349.7003,-163 349.7003,-163 349.7003,-163 239.2192,-163 239.2192,-163"/>
<polygon fill="#000000" stroke="#000000" points="239.2193,-159.5001 229.2192,-163 239.2192,-166.5001 239.2193,-159.5001"/>
</g>
<!-- NguiInviewDirective -->
<g id="node2" class="node">
<title>NguiInviewDirective</title>
<polygon fill="#ffffb3" stroke="#000000" points="232.4524,-122 97.5476,-122 97.5476,-86 232.4524,-86 232.4524,-122"/>
<text text-anchor="middle" x="165" y="-99.8" font-family="Times,serif" font-size="14.00" fill="#000000">NguiInviewDirective</text>
</g>
<!-- NguiInviewDirective&#45;&gt;NguiInviewModule -->
<g id="edge2" class="edge">
<title>NguiInviewDirective&#45;&gt;NguiInviewModule</title>
<path fill="none" stroke="#000000" d="M166,-122.1061C166,-122.1061 166,-140.991 166,-140.991"/>
<polygon fill="#000000" stroke="#000000" points="162.5001,-140.9909 166,-150.991 169.5001,-140.991 162.5001,-140.9909"/>
</g>
<!-- NguiInviewComponent  -->
<g id="node4" class="node">
<title>NguiInviewComponent </title>
<polygon fill="#fb8072" stroke="#000000" points="401.7023,-252 250.2977,-252 250.2977,-216 401.7023,-216 401.7023,-252"/>
<text text-anchor="middle" x="326" y="-229.8" font-family="Times,serif" font-size="14.00" fill="#000000">NguiInviewComponent </text>
</g>
<!-- NguiInviewModule&#45;&gt;NguiInviewComponent  -->
<g id="edge3" class="edge">
<title>NguiInviewModule&#45;&gt;NguiInviewComponent </title>
<path fill="none" stroke="#000000" stroke-dasharray="5,2" d="M229.2173,-175C264.0505,-175 300.2997,-175 300.2997,-175 300.2997,-175 300.2997,-205.9775 300.2997,-205.9775"/>
<polygon fill="#000000" stroke="#000000" points="296.7998,-205.9774 300.2997,-215.9775 303.7998,-205.9775 296.7998,-205.9774"/>
</g>
<!-- NguiInviewDirective  -->
<g id="node5" class="node">
<title>NguiInviewDirective </title>
<polygon fill="#fb8072" stroke="#000000" points="232.4531,-252 93.5469,-252 93.5469,-216 232.4531,-216 232.4531,-252"/>
<text text-anchor="middle" x="163" y="-229.8" font-family="Times,serif" font-size="14.00" fill="#000000">NguiInviewDirective </text>
</g>
<!-- NguiInviewModule&#45;&gt;NguiInviewDirective  -->
<g id="edge4" class="edge">
<title>NguiInviewModule&#45;&gt;NguiInviewDirective </title>
<path fill="none" stroke="#000000" stroke-dasharray="5,2" d="M166,-187.1061C166,-187.1061 166,-205.991 166,-205.991"/>
<polygon fill="#000000" stroke="#000000" points="162.5001,-205.9909 166,-215.991 169.5001,-205.991 162.5001,-205.9909"/>
</g>
</g>
</svg>
