<?xml version="1.0" encoding="UTF-8" standalone="no"?>
<!DOCTYPE svg PUBLIC "-//W3C//DTD SVG 1.1//EN"
 "http://www.w3.org/Graphics/SVG/1.1/DTD/svg11.dtd">
<!-- Generated by graphviz version 2.47.3 (20210619.1520)
 -->
<!-- Title: dependencies Pages: 1 -->
<svg width="364pt" height="247pt"
 viewBox="0.00 0.00 364.00 246.80" xmlns="http://www.w3.org/2000/svg" xmlns:xlink="http://www.w3.org/1999/xlink">
<g id="graph0" class="graph" transform="scale(1 1) rotate(0) translate(4 242.8)">
<title>dependencies</title>
<polygon fill="white" stroke="transparent" points="-4,4 -4,-242.8 360,-242.8 360,4 -4,4"/>
<text text-anchor="middle" x="178" y="-8.2" font-family="sans-serif" font-size="14.00">dependencies</text>
<g id="clust1" class="cluster">
<title>cluster_NguiInviewModule</title>
<polygon fill="none" stroke="black" stroke-dasharray="1,5" points="8,-32.8 8,-230.8 348,-230.8 348,-32.8 8,-32.8"/>
</g>
<g id="clust6" class="cluster">
<title>cluster_NguiInviewModule_exports</title>
<polygon fill="none" stroke="black" points="16,-170.8 16,-222.8 340,-222.8 340,-170.8 16,-170.8"/>
</g>
<g id="clust2" class="cluster">
<title>cluster_NguiInviewModule_declarations</title>
<polygon fill="none" stroke="black" points="20,-40.8 20,-92.8 337,-92.8 337,-40.8 20,-40.8"/>
</g>
<!-- NguiInviewComponent -->
<g id="node1" class="node">
<title>NguiInviewComponent</title>
<polygon fill="#ffffb3" stroke="black" points="329.2,-84.8 180.8,-84.8 180.8,-48.8 329.2,-48.8 329.2,-84.8"/>
<text text-anchor="middle" x="255" y="-62.6" font-family="Times,serif" font-size="14.00">NguiInviewComponent</text>
</g>
<!-- NguiInviewModule -->
<g id="node3" class="node">
<title>NguiInviewModule</title>
<polygon fill="#8dd3c7" stroke="black" points="159.42,-149.8 156.42,-153.8 135.42,-153.8 132.42,-149.8 32.58,-149.8 32.58,-113.8 159.42,-113.8 159.42,-149.8"/>
<text text-anchor="middle" x="96" y="-127.6" font-family="Times,serif" font-size="14.00">NguiInviewModule</text>
</g>
<!-- NguiInviewComponent&#45;&gt;NguiInviewModule -->
<g id="edge1" class="edge">
<title>NguiInviewComponent&#45;&gt;NguiInviewModule</title>
<path fill="none" stroke="black" d="M279.7,-84.82C279.7,-102.17 279.7,-125.8 279.7,-125.8 279.7,-125.8 169.22,-125.8 169.22,-125.8"/>
<polygon fill="black" stroke="black" points="169.22,-122.3 159.22,-125.8 169.22,-129.3 169.22,-122.3"/>
</g>
<!-- NguiInviewDirective -->
<g id="node2" class="node">
<title>NguiInviewDirective</title>
<polygon fill="#ffffb3" stroke="black" points="162.45,-84.8 27.55,-84.8 27.55,-48.8 162.45,-48.8 162.45,-84.8"/>
<text text-anchor="middle" x="95" y="-62.6" font-family="Times,serif" font-size="14.00">NguiInviewDirective</text>
</g>
<!-- NguiInviewDirective&#45;&gt;NguiInviewModule -->
<g id="edge2" class="edge">
<title>NguiInviewDirective&#45;&gt;NguiInviewModule</title>
<path fill="none" stroke="black" d="M96,-84.91C96,-84.91 96,-103.79 96,-103.79"/>
<polygon fill="black" stroke="black" points="92.5,-103.79 96,-113.79 99.5,-103.79 92.5,-103.79"/>
</g>
<!-- NguiInviewComponent  -->
<g id="node4" class="node">
<title>NguiInviewComponent </title>
<polygon fill="#fb8072" stroke="black" points="331.7,-214.8 180.3,-214.8 180.3,-178.8 331.7,-178.8 331.7,-214.8"/>
<text text-anchor="middle" x="256" y="-192.6" font-family="Times,serif" font-size="14.00">NguiInviewComponent </text>
</g>
<!-- NguiInviewModule&#45;&gt;NguiInviewComponent  -->
<g id="edge3" class="edge">
<title>NguiInviewModule&#45;&gt;NguiInviewComponent </title>
<path fill="none" stroke="black" stroke-dasharray="5,2" d="M159.22,-137.8C194.05,-137.8 230.3,-137.8 230.3,-137.8 230.3,-137.8 230.3,-168.78 230.3,-168.78"/>
<polygon fill="black" stroke="black" points="226.8,-168.78 230.3,-178.78 233.8,-168.78 226.8,-168.78"/>
</g>
<!-- NguiInviewDirective  -->
<g id="node5" class="node">
<title>NguiInviewDirective </title>
<polygon fill="#fb8072" stroke="black" points="162.45,-214.8 23.55,-214.8 23.55,-178.8 162.45,-178.8 162.45,-214.8"/>
<text text-anchor="middle" x="93" y="-192.6" font-family="Times,serif" font-size="14.00">NguiInviewDirective </text>
</g>
<!-- NguiInviewModule&#45;&gt;NguiInviewDirective  -->
<g id="edge4" class="edge">
<title>NguiInviewModule&#45;&gt;NguiInviewDirective </title>
<path fill="none" stroke="black" stroke-dasharray="5,2" d="M96,-149.91C96,-149.91 96,-168.79 96,-168.79"/>
<polygon fill="black" stroke="black" points="92.5,-168.79 96,-178.79 99.5,-168.79 92.5,-168.79"/>
</g>
</g>
</svg>
