<?xml version="1.0" encoding="UTF-8" standalone="no"?>
<!DOCTYPE svg PUBLIC "-//W3C//DTD SVG 1.1//EN"
 "http://www.w3.org/Graphics/SVG/1.1/DTD/svg11.dtd">
<!-- Generated by graphviz version 2.47.3 (20210619.1520)
 -->
<!-- Title: dependencies Pages: 1 -->
<svg width="1074pt" height="247pt"
 viewBox="0.00 0.00 1074.00 246.80" xmlns="http://www.w3.org/2000/svg" xmlns:xlink="http://www.w3.org/1999/xlink">
<g id="graph0" class="graph" transform="scale(1 1) rotate(0) translate(4 242.8)">
<title>dependencies</title>
<polygon fill="white" stroke="transparent" points="-4,4 -4,-242.8 1070,-242.8 1070,4 -4,4"/>
<text text-anchor="middle" x="533" y="-8.2" font-family="sans-serif" font-size="14.00">dependencies</text>
<g id="clust1" class="cluster">
<title>cluster_NguiListModule</title>
<polygon fill="none" stroke="black" stroke-dasharray="1,5" points="8,-32.8 8,-230.8 1058,-230.8 1058,-32.8 8,-32.8"/>
</g>
<g id="clust8" class="cluster">
<title>cluster_NguiListModule_imports</title>
<polygon fill="none" stroke="black" points="908,-40.8 908,-92.8 1050,-92.8 1050,-40.8 908,-40.8"/>
</g>
<g id="clust9" class="cluster">
<title>cluster_NguiListModule_exports</title>
<polygon fill="none" stroke="black" points="82,-170.8 82,-222.8 984,-222.8 984,-170.8 82,-170.8"/>
</g>
<g id="clust2" class="cluster">
<title>cluster_NguiListModule_declarations</title>
<polygon fill="none" stroke="black" points="16,-40.8 16,-92.8 900,-92.8 900,-40.8 16,-40.8"/>
</g>
<!-- NguiAutocompleteComponent -->
<g id="node1" class="node">
<title>NguiAutocompleteComponent</title>
<polygon fill="#ffffb3" stroke="black" points="892.14,-84.8 703.86,-84.8 703.86,-48.8 892.14,-48.8 892.14,-84.8"/>
<text text-anchor="middle" x="798" y="-62.6" font-family="Times,serif" font-size="14.00">NguiAutocompleteComponent</text>
</g>
<!-- NguiListModule -->
<g id="node6" class="node">
<title>NguiListModule</title>
<polygon fill="#8dd3c7" stroke="black" points="562.83,-149.8 559.83,-153.8 538.83,-153.8 535.83,-149.8 453.17,-149.8 453.17,-113.8 562.83,-113.8 562.83,-149.8"/>
<text text-anchor="middle" x="508" y="-127.6" font-family="Times,serif" font-size="14.00">NguiListModule</text>
</g>
<!-- NguiAutocompleteComponent&#45;&gt;NguiListModule -->
<g id="edge1" class="edge">
<title>NguiAutocompleteComponent&#45;&gt;NguiListModule</title>
<path fill="none" stroke="black" d="M734.57,-84.81C734.57,-100.85 734.57,-121.8 734.57,-121.8 734.57,-121.8 572.85,-121.8 572.85,-121.8"/>
<polygon fill="black" stroke="black" points="572.85,-118.3 562.85,-121.8 572.85,-125.3 572.85,-118.3"/>
</g>
<!-- NguiInviewPageComponent -->
<g id="node2" class="node">
<title>NguiInviewPageComponent</title>
<polygon fill="#ffffb3" stroke="black" points="685.91,-84.8 510.09,-84.8 510.09,-48.8 685.91,-48.8 685.91,-84.8"/>
<text text-anchor="middle" x="598" y="-62.6" font-family="Times,serif" font-size="14.00">NguiInviewPageComponent</text>
</g>
<!-- NguiInviewPageComponent&#45;&gt;NguiListModule -->
<g id="edge2" class="edge">
<title>NguiInviewPageComponent&#45;&gt;NguiListModule</title>
<path fill="none" stroke="black" d="M536.48,-84.91C536.48,-84.91 536.48,-103.79 536.48,-103.79"/>
<polygon fill="black" stroke="black" points="532.98,-103.79 536.48,-113.79 539.98,-103.79 532.98,-103.79"/>
</g>
<!-- NguiListDirective -->
<g id="node3" class="node">
<title>NguiListDirective</title>
<polygon fill="#ffffb3" stroke="black" points="491.86,-84.8 374.14,-84.8 374.14,-48.8 491.86,-48.8 491.86,-84.8"/>
<text text-anchor="middle" x="433" y="-62.6" font-family="Times,serif" font-size="14.00">NguiListDirective</text>
</g>
<!-- NguiListDirective&#45;&gt;NguiListModule -->
<g id="edge3" class="edge">
<title>NguiListDirective&#45;&gt;NguiListModule</title>
<path fill="none" stroke="black" d="M472.63,-84.91C472.63,-84.91 472.63,-103.79 472.63,-103.79"/>
<polygon fill="black" stroke="black" points="469.13,-103.79 472.63,-113.79 476.13,-103.79 469.13,-103.79"/>
</g>
<!-- NguiListItemDirective -->
<g id="node4" class="node">
<title>NguiListItemDirective</title>
<polygon fill="#ffffb3" stroke="black" points="355.52,-84.8 212.48,-84.8 212.48,-48.8 355.52,-48.8 355.52,-84.8"/>
<text text-anchor="middle" x="284" y="-62.6" font-family="Times,serif" font-size="14.00">NguiListItemDirective</text>
</g>
<!-- NguiListItemDirective&#45;&gt;NguiListModule -->
<g id="edge4" class="edge">
<title>NguiListItemDirective&#45;&gt;NguiListModule</title>
<path fill="none" stroke="black" d="M319.12,-84.81C319.12,-100.85 319.12,-121.8 319.12,-121.8 319.12,-121.8 443.12,-121.8 443.12,-121.8"/>
<polygon fill="black" stroke="black" points="443.12,-125.3 453.12,-121.8 443.12,-118.3 443.12,-125.3"/>
</g>
<!-- NguiVirtualListComponent -->
<g id="node5" class="node">
<title>NguiVirtualListComponent</title>
<polygon fill="#ffffb3" stroke="black" points="194.26,-84.8 23.74,-84.8 23.74,-48.8 194.26,-48.8 194.26,-84.8"/>
<text text-anchor="middle" x="109" y="-62.6" font-family="Times,serif" font-size="14.00">NguiVirtualListComponent</text>
</g>
<!-- NguiVirtualListComponent&#45;&gt;NguiListModule -->
<g id="edge5" class="edge">
<title>NguiVirtualListComponent&#45;&gt;NguiListModule</title>
<path fill="none" stroke="black" d="M142.12,-85.07C142.12,-103.36 142.12,-128.8 142.12,-128.8 142.12,-128.8 443.22,-128.8 443.22,-128.8"/>
<polygon fill="black" stroke="black" points="443.22,-132.3 453.22,-128.8 443.22,-125.3 443.22,-132.3"/>
</g>
<!-- NguiAutocompleteComponent  -->
<g id="node8" class="node">
<title>NguiAutocompleteComponent </title>
<polygon fill="#fb8072" stroke="black" points="976.14,-214.8 783.86,-214.8 783.86,-178.8 976.14,-178.8 976.14,-214.8"/>
<text text-anchor="middle" x="880" y="-192.6" font-family="Times,serif" font-size="14.00">NguiAutocompleteComponent </text>
</g>
<!-- NguiListModule&#45;&gt;NguiAutocompleteComponent  -->
<g id="edge7" class="edge">
<title>NguiListModule&#45;&gt;NguiAutocompleteComponent </title>
<path fill="none" stroke="black" stroke-dasharray="5,2" d="M562.88,-135.8C656.76,-135.8 838.12,-135.8 838.12,-135.8 838.12,-135.8 838.12,-168.5 838.12,-168.5"/>
<polygon fill="black" stroke="black" points="834.63,-168.5 838.12,-178.5 841.63,-168.5 834.63,-168.5"/>
</g>
<!-- NguiInviewPageComponent  -->
<g id="node9" class="node">
<title>NguiInviewPageComponent </title>
<polygon fill="#fb8072" stroke="black" points="765.41,-214.8 586.59,-214.8 586.59,-178.8 765.41,-178.8 765.41,-214.8"/>
<text text-anchor="middle" x="676" y="-192.6" font-family="Times,serif" font-size="14.00">NguiInviewPageComponent </text>
</g>
<!-- NguiListModule&#45;&gt;NguiInviewPageComponent  -->
<g id="edge8" class="edge">
<title>NguiListModule&#45;&gt;NguiInviewPageComponent </title>
<path fill="none" stroke="black" stroke-dasharray="5,2" d="M562.71,-142.8C597.53,-142.8 636.12,-142.8 636.12,-142.8 636.12,-142.8 636.12,-168.52 636.12,-168.52"/>
<polygon fill="black" stroke="black" points="632.63,-168.52 636.12,-178.52 639.63,-168.52 632.63,-168.52"/>
</g>
<!-- NguiListDirective  -->
<g id="node10" class="node">
<title>NguiListDirective </title>
<polygon fill="#fb8072" stroke="black" points="568.86,-214.8 447.14,-214.8 447.14,-178.8 568.86,-178.8 568.86,-214.8"/>
<text text-anchor="middle" x="508" y="-192.6" font-family="Times,serif" font-size="14.00">NguiListDirective </text>
</g>
<!-- NguiListModule&#45;&gt;NguiListDirective  -->
<g id="edge9" class="edge">
<title>NguiListModule&#45;&gt;NguiListDirective </title>
<path fill="none" stroke="black" stroke-dasharray="5,2" d="M508,-149.91C508,-149.91 508,-168.79 508,-168.79"/>
<polygon fill="black" stroke="black" points="504.5,-168.79 508,-178.79 511.5,-168.79 504.5,-168.79"/>
</g>
<!-- NguiListItemDirective  -->
<g id="node11" class="node">
<title>NguiListItemDirective </title>
<polygon fill="#fb8072" stroke="black" points="429.51,-214.8 282.49,-214.8 282.49,-178.8 429.51,-178.8 429.51,-214.8"/>
<text text-anchor="middle" x="356" y="-192.6" font-family="Times,serif" font-size="14.00">NguiListItemDirective </text>
</g>
<!-- NguiListModule&#45;&gt;NguiListItemDirective  -->
<g id="edge10" class="edge">
<title>NguiListModule&#45;&gt;NguiListItemDirective </title>
<path fill="none" stroke="black" stroke-dasharray="5,2" d="M453.03,-142.8C427.11,-142.8 401.79,-142.8 401.79,-142.8 401.79,-142.8 401.79,-168.52 401.79,-168.52"/>
<polygon fill="black" stroke="black" points="398.29,-168.52 401.79,-178.52 405.29,-168.52 398.29,-168.52"/>
</g>
<!-- NguiVirtualListComponent  -->
<g id="node12" class="node">
<title>NguiVirtualListComponent </title>
<polygon fill="#fb8072" stroke="black" points="264.26,-214.8 89.74,-214.8 89.74,-178.8 264.26,-178.8 264.26,-214.8"/>
<text text-anchor="middle" x="177" y="-192.6" font-family="Times,serif" font-size="14.00">NguiVirtualListComponent </text>
</g>
<!-- NguiListModule&#45;&gt;NguiVirtualListComponent  -->
<g id="edge11" class="edge">
<title>NguiListModule&#45;&gt;NguiVirtualListComponent </title>
<path fill="none" stroke="black" stroke-dasharray="5,2" d="M453.07,-135.8C374.18,-135.8 238.19,-135.8 238.19,-135.8 238.19,-135.8 238.19,-168.5 238.19,-168.5"/>
<polygon fill="black" stroke="black" points="234.69,-168.5 238.19,-178.5 241.69,-168.5 234.69,-168.5"/>
</g>
<!-- NguiInviewModule -->
<g id="node7" class="node">
<title>NguiInviewModule</title>
<polygon fill="#8dd3c7" stroke="black" points="1042.42,-84.8 1039.42,-88.8 1018.42,-88.8 1015.42,-84.8 915.58,-84.8 915.58,-48.8 1042.42,-48.8 1042.42,-84.8"/>
<text text-anchor="middle" x="979" y="-62.6" font-family="Times,serif" font-size="14.00">NguiInviewModule</text>
</g>
<!-- NguiInviewModule&#45;&gt;NguiListModule -->
<g id="edge6" class="edge">
<title>NguiInviewModule&#45;&gt;NguiListModule</title>
<path fill="none" stroke="black" d="M945.93,-85.07C945.93,-103.36 945.93,-128.8 945.93,-128.8 945.93,-128.8 573.02,-128.8 573.02,-128.8"/>
<polygon fill="black" stroke="black" points="573.02,-125.3 563.02,-128.8 573.02,-132.3 573.02,-125.3"/>
</g>
</g>
</svg>
