<?xml version="1.0" encoding="UTF-8" standalone="no"?>
<!DOCTYPE svg PUBLIC "-//W3C//DTD SVG 1.1//EN"
 "http://www.w3.org/Graphics/SVG/1.1/DTD/svg11.dtd">
<!-- Generated by graphviz version 2.40.1 (20161225.0304)
 -->
<!-- Title: dependencies Pages: 1 -->
<svg width="868pt" height="284pt"
 viewBox="0.00 0.00 868.00 284.00" xmlns="http://www.w3.org/2000/svg" xmlns:xlink="http://www.w3.org/1999/xlink">
<g id="graph0" class="graph" transform="scale(1 1) rotate(0) translate(4 280)">
<title>dependencies</title>
<polygon fill="#ffffff" stroke="transparent" points="-4,4 -4,-280 864,-280 864,4 -4,4"/>
<text text-anchor="start" x="409.0091" y="-42.4" font-family="sans-serif" font-weight="bold" font-size="14.00" fill="#000000">Legend</text>
<polygon fill="#ffffb3" stroke="transparent" points="196,-10 196,-30 216,-30 216,-10 196,-10"/>
<text text-anchor="start" x="219.629" y="-15.4" font-family="sans-serif" font-size="14.00" fill="#000000"> &#160;Declarations</text>
<polygon fill="#8dd3c7" stroke="transparent" points="309,-10 309,-30 329,-30 329,-10 309,-10"/>
<text text-anchor="start" x="332.7251" y="-15.4" font-family="sans-serif" font-size="14.00" fill="#000000"> &#160;Module</text>
<polygon fill="#80b1d3" stroke="transparent" points="395,-10 395,-30 415,-30 415,-10 395,-10"/>
<text text-anchor="start" x="418.7812" y="-15.4" font-family="sans-serif" font-size="14.00" fill="#000000"> &#160;Bootstrap</text>
<polygon fill="#fdb462" stroke="transparent" points="492,-10 492,-30 512,-30 512,-10 492,-10"/>
<text text-anchor="start" x="515.6732" y="-15.4" font-family="sans-serif" font-size="14.00" fill="#000000"> &#160;Providers</text>
<polygon fill="#fb8072" stroke="transparent" points="588,-10 588,-30 608,-30 608,-10 588,-10"/>
<text text-anchor="start" x="611.7258" y="-15.4" font-family="sans-serif" font-size="14.00" fill="#000000"> &#160;Exports</text>
<g id="clust1" class="cluster">
<title>cluster_NguiListModule</title>
<polygon fill="none" stroke="#000000" stroke-dasharray="1,5" points="8,-70 8,-268 852,-268 852,-70 8,-70"/>
</g>
<g id="clust2" class="cluster">
<title>cluster_NguiListModule_declarations</title>
<polygon fill="none" stroke="#000000" points="166,-78 166,-130 844,-130 844,-78 166,-78"/>
</g>
<g id="clust7" class="cluster">
<title>cluster_NguiListModule_imports</title>
<polygon fill="none" stroke="#000000" points="16,-78 16,-130 158,-130 158,-78 16,-78"/>
</g>
<g id="clust8" class="cluster">
<title>cluster_NguiListModule_exports</title>
<polygon fill="none" stroke="#000000" points="85,-208 85,-260 776,-260 776,-208 85,-208"/>
</g>
<!-- NguiInviewPageComponent -->
<g id="node1" class="node">
<title>NguiInviewPageComponent</title>
<polygon fill="#ffffb3" stroke="#000000" points="835.9143,-122 660.0857,-122 660.0857,-86 835.9143,-86 835.9143,-122"/>
<text text-anchor="middle" x="748" y="-99.8" font-family="Times,serif" font-size="14.00" fill="#000000">NguiInviewPageComponent</text>
</g>
<!-- NguiListModule -->
<g id="node5" class="node">
<title>NguiListModule</title>
<polygon fill="#8dd3c7" stroke="#000000" points="488.8259,-187 485.8259,-191 464.8259,-191 461.8259,-187 379.1741,-187 379.1741,-151 488.8259,-151 488.8259,-187"/>
<text text-anchor="middle" x="434" y="-164.8" font-family="Times,serif" font-size="14.00" fill="#000000">NguiListModule</text>
</g>
<!-- NguiInviewPageComponent&#45;&gt;NguiListModule -->
<g id="edge1" class="edge">
<title>NguiInviewPageComponent&#45;&gt;NguiListModule</title>
<path fill="none" stroke="#000000" d="M714.375,-122.1061C714.375,-141.3391 714.375,-169 714.375,-169 714.375,-169 498.7247,-169 498.7247,-169"/>
<polygon fill="#000000" stroke="#000000" points="498.7247,-165.5001 488.7247,-169 498.7247,-172.5001 498.7247,-165.5001"/>
</g>
<!-- NguiListDirective -->
<g id="node2" class="node">
<title>NguiListDirective</title>
<polygon fill="#ffffb3" stroke="#000000" points="641.8585,-122 524.1415,-122 524.1415,-86 641.8585,-86 641.8585,-122"/>
<text text-anchor="middle" x="583" y="-99.8" font-family="Times,serif" font-size="14.00" fill="#000000">NguiListDirective</text>
</g>
<!-- NguiListDirective&#45;&gt;NguiListModule -->
<g id="edge2" class="edge">
<title>NguiListDirective&#45;&gt;NguiListModule</title>
<path fill="none" stroke="#000000" d="M547.875,-122.027C547.875,-138.3976 547.875,-160 547.875,-160 547.875,-160 498.9362,-160 498.9362,-160"/>
<polygon fill="#000000" stroke="#000000" points="498.9362,-156.5001 488.9362,-160 498.9361,-163.5001 498.9362,-156.5001"/>
</g>
<!-- NguiListItemDirective -->
<g id="node3" class="node">
<title>NguiListItemDirective</title>
<polygon fill="#ffffb3" stroke="#000000" points="505.5156,-122 362.4844,-122 362.4844,-86 505.5156,-86 505.5156,-122"/>
<text text-anchor="middle" x="434" y="-99.8" font-family="Times,serif" font-size="14.00" fill="#000000">NguiListItemDirective</text>
</g>
<!-- NguiListItemDirective&#45;&gt;NguiListModule -->
<g id="edge3" class="edge">
<title>NguiListItemDirective&#45;&gt;NguiListModule</title>
<path fill="none" stroke="#000000" d="M434,-122.1061C434,-122.1061 434,-140.991 434,-140.991"/>
<polygon fill="#000000" stroke="#000000" points="430.5001,-140.9909 434,-150.991 437.5001,-140.991 430.5001,-140.9909"/>
</g>
<!-- NguiVirtualListComponent -->
<g id="node4" class="node">
<title>NguiVirtualListComponent</title>
<polygon fill="#ffffb3" stroke="#000000" points="344.2618,-122 173.7382,-122 173.7382,-86 344.2618,-86 344.2618,-122"/>
<text text-anchor="middle" x="259" y="-99.8" font-family="Times,serif" font-size="14.00" fill="#000000">NguiVirtualListComponent</text>
</g>
<!-- NguiVirtualListComponent&#45;&gt;NguiListModule -->
<g id="edge4" class="edge">
<title>NguiVirtualListComponent&#45;&gt;NguiListModule</title>
<path fill="none" stroke="#000000" d="M314.9367,-122.027C314.9367,-138.3976 314.9367,-160 314.9367,-160 314.9367,-160 368.9991,-160 368.9991,-160"/>
<polygon fill="#000000" stroke="#000000" points="368.9991,-163.5001 378.9991,-160 368.9991,-156.5001 368.9991,-163.5001"/>
</g>
<!-- NguiInviewPageComponent  -->
<g id="node7" class="node">
<title>NguiInviewPageComponent </title>
<polygon fill="#fb8072" stroke="#000000" points="768.4138,-252 589.5862,-252 589.5862,-216 768.4138,-216 768.4138,-252"/>
<text text-anchor="middle" x="679" y="-229.8" font-family="Times,serif" font-size="14.00" fill="#000000">NguiInviewPageComponent </text>
</g>
<!-- NguiListModule&#45;&gt;NguiInviewPageComponent  -->
<g id="edge6" class="edge">
<title>NguiListModule&#45;&gt;NguiInviewPageComponent </title>
<path fill="none" stroke="#000000" stroke-dasharray="5,2" d="M489.02,-178C542.5097,-178 615.7361,-178 615.7361,-178 615.7361,-178 615.7361,-205.973 615.7361,-205.973"/>
<polygon fill="#000000" stroke="#000000" points="612.2362,-205.973 615.7361,-215.973 619.2362,-205.973 612.2362,-205.973"/>
</g>
<!-- NguiListDirective  -->
<g id="node8" class="node">
<title>NguiListDirective </title>
<polygon fill="#fb8072" stroke="#000000" points="571.8589,-252 450.1411,-252 450.1411,-216 571.8589,-216 571.8589,-252"/>
<text text-anchor="middle" x="511" y="-229.8" font-family="Times,serif" font-size="14.00" fill="#000000">NguiListDirective </text>
</g>
<!-- NguiListModule&#45;&gt;NguiListDirective  -->
<g id="edge7" class="edge">
<title>NguiListModule&#45;&gt;NguiListDirective </title>
<path fill="none" stroke="#000000" stroke-dasharray="5,2" d="M469.4918,-187.1061C469.4918,-187.1061 469.4918,-205.991 469.4918,-205.991"/>
<polygon fill="#000000" stroke="#000000" points="465.9918,-205.9909 469.4918,-215.991 472.9918,-205.991 465.9918,-205.9909"/>
</g>
<!-- NguiListItemDirective  -->
<g id="node9" class="node">
<title>NguiListItemDirective </title>
<polygon fill="#fb8072" stroke="#000000" points="432.5148,-252 285.4852,-252 285.4852,-216 432.5148,-216 432.5148,-252"/>
<text text-anchor="middle" x="359" y="-229.8" font-family="Times,serif" font-size="14.00" fill="#000000">NguiListItemDirective </text>
</g>
<!-- NguiListModule&#45;&gt;NguiListItemDirective  -->
<g id="edge8" class="edge">
<title>NguiListModule&#45;&gt;NguiListItemDirective </title>
<path fill="none" stroke="#000000" stroke-dasharray="5,2" d="M405.9224,-187.1061C405.9224,-187.1061 405.9224,-205.991 405.9224,-205.991"/>
<polygon fill="#000000" stroke="#000000" points="402.4224,-205.9909 405.9224,-215.991 409.4224,-205.991 402.4224,-205.9909"/>
</g>
<!-- NguiVirtualListComponent  -->
<g id="node10" class="node">
<title>NguiVirtualListComponent </title>
<polygon fill="#fb8072" stroke="#000000" points="267.2618,-252 92.7382,-252 92.7382,-216 267.2618,-216 267.2618,-252"/>
<text text-anchor="middle" x="180" y="-229.8" font-family="Times,serif" font-size="14.00" fill="#000000">NguiVirtualListComponent </text>
</g>
<!-- NguiListModule&#45;&gt;NguiVirtualListComponent  -->
<g id="edge9" class="edge">
<title>NguiListModule&#45;&gt;NguiVirtualListComponent </title>
<path fill="none" stroke="#000000" stroke-dasharray="5,2" d="M379.2637,-178C315.9696,-178 220.375,-178 220.375,-178 220.375,-178 220.375,-205.973 220.375,-205.973"/>
<polygon fill="#000000" stroke="#000000" points="216.8751,-205.973 220.375,-215.973 223.8751,-205.973 216.8751,-205.973"/>
</g>
<!-- NguiInviewModule -->
<g id="node6" class="node">
<title>NguiInviewModule</title>
<polygon fill="#8dd3c7" stroke="#000000" points="150.4201,-122 147.4201,-126 126.4201,-126 123.4201,-122 23.5799,-122 23.5799,-86 150.4201,-86 150.4201,-122"/>
<text text-anchor="middle" x="87" y="-99.8" font-family="Times,serif" font-size="14.00" fill="#000000">NguiInviewModule</text>
</g>
<!-- NguiInviewModule&#45;&gt;NguiListModule -->
<g id="edge5" class="edge">
<title>NguiInviewModule&#45;&gt;NguiListModule</title>
<path fill="none" stroke="#000000" d="M121.5395,-122.1061C121.5395,-141.3391 121.5395,-169 121.5394,-169 121.5394,-169 369.216,-169 369.216,-169"/>
<polygon fill="#000000" stroke="#000000" points="369.216,-172.5001 379.216,-169 369.2159,-165.5001 369.216,-172.5001"/>
</g>
</g>
</svg>
