<?xml version="1.0" encoding="UTF-8" standalone="no"?>
<!DOCTYPE svg PUBLIC "-//W3C//DTD SVG 1.1//EN"
 "http://www.w3.org/Graphics/SVG/1.1/DTD/svg11.dtd">
<!-- Generated by graphviz version 2.40.1 (20161225.0304)
 -->
<!-- Title: dependencies Pages: 1 -->
<svg width="504pt" height="284pt"
 viewBox="0.00 0.00 504.00 284.00" xmlns="http://www.w3.org/2000/svg" xmlns:xlink="http://www.w3.org/1999/xlink">
<g id="graph0" class="graph" transform="scale(1 1) rotate(0) translate(4 280)">
<title>dependencies</title>
<polygon fill="#ffffff" stroke="transparent" points="-4,4 -4,-280 500,-280 500,4 -4,4"/>
<text text-anchor="start" x="227.0091" y="-42.4" font-family="sans-serif" font-weight="bold" font-size="14.00" fill="#000000">Legend</text>
<polygon fill="#ffffb3" stroke="transparent" points="14,-10 14,-30 34,-30 34,-10 14,-10"/>
<text text-anchor="start" x="37.629" y="-15.4" font-family="sans-serif" font-size="14.00" fill="#000000"> &#160;Declarations</text>
<polygon fill="#8dd3c7" stroke="transparent" points="127,-10 127,-30 147,-30 147,-10 127,-10"/>
<text text-anchor="start" x="150.7251" y="-15.4" font-family="sans-serif" font-size="14.00" fill="#000000"> &#160;Module</text>
<polygon fill="#80b1d3" stroke="transparent" points="213,-10 213,-30 233,-30 233,-10 213,-10"/>
<text text-anchor="start" x="236.7812" y="-15.4" font-family="sans-serif" font-size="14.00" fill="#000000"> &#160;Bootstrap</text>
<polygon fill="#fdb462" stroke="transparent" points="310,-10 310,-30 330,-30 330,-10 310,-10"/>
<text text-anchor="start" x="333.6732" y="-15.4" font-family="sans-serif" font-size="14.00" fill="#000000"> &#160;Providers</text>
<polygon fill="#fb8072" stroke="transparent" points="406,-10 406,-30 426,-30 426,-10 406,-10"/>
<text text-anchor="start" x="429.7258" y="-15.4" font-family="sans-serif" font-size="14.00" fill="#000000"> &#160;Exports</text>
<g id="clust1" class="cluster">
<title>cluster_NguiCommonModule</title>
<polygon fill="none" stroke="#000000" stroke-dasharray="1,5" points="33.5,-70 33.5,-268 462.5,-268 462.5,-70 33.5,-70"/>
</g>
<g id="clust3" class="cluster">
<title>cluster_NguiCommonModule_imports</title>
<polygon fill="none" stroke="#000000" points="47.5,-78 47.5,-130 449.5,-130 449.5,-78 47.5,-78"/>
</g>
<g id="clust4" class="cluster">
<title>cluster_NguiCommonModule_exports</title>
<polygon fill="none" stroke="#000000" points="41.5,-208 41.5,-260 454.5,-260 454.5,-208 41.5,-208"/>
</g>
<!-- NguiInviewModule -->
<g id="node1" class="node">
<title>NguiInviewModule</title>
<polygon fill="#8dd3c7" stroke="#000000" points="441.9201,-122 438.9201,-126 417.9201,-126 414.9201,-122 315.0799,-122 315.0799,-86 441.9201,-86 441.9201,-122"/>
<text text-anchor="middle" x="378.5" y="-99.8" font-family="Times,serif" font-size="14.00" fill="#000000">NguiInviewModule</text>
</g>
<!-- NguiCommonModule -->
<g id="node4" class="node">
<title>NguiCommonModule</title>
<polygon fill="#8dd3c7" stroke="#000000" points="312.1652,-187 309.1652,-191 288.1652,-191 285.1652,-187 172.8348,-187 172.8348,-151 312.1652,-151 312.1652,-187"/>
<text text-anchor="middle" x="242.5" y="-164.8" font-family="Times,serif" font-size="14.00" fill="#000000">NguiCommonModule</text>
</g>
<!-- NguiInviewModule&#45;&gt;NguiCommonModule -->
<g id="edge1" class="edge">
<title>NguiInviewModule&#45;&gt;NguiCommonModule</title>
<path fill="none" stroke="#000000" d="M315.0025,-104C308.7989,-104 304.7476,-104 304.7476,-104 304.7476,-104 304.7476,-140.8939 304.7476,-140.8939"/>
<polygon fill="#000000" stroke="#000000" points="301.2476,-140.8938 304.7476,-150.8939 308.2476,-140.8939 301.2476,-140.8938"/>
</g>
<!-- NguiListModule -->
<g id="node2" class="node">
<title>NguiListModule</title>
<polygon fill="#8dd3c7" stroke="#000000" points="297.3259,-122 294.3259,-126 273.3259,-126 270.3259,-122 187.6741,-122 187.6741,-86 297.3259,-86 297.3259,-122"/>
<text text-anchor="middle" x="242.5" y="-99.8" font-family="Times,serif" font-size="14.00" fill="#000000">NguiListModule</text>
</g>
<!-- NguiListModule&#45;&gt;NguiCommonModule -->
<g id="edge2" class="edge">
<title>NguiListModule&#45;&gt;NguiCommonModule</title>
<path fill="none" stroke="#000000" d="M242.5,-122.1061C242.5,-122.1061 242.5,-140.991 242.5,-140.991"/>
<polygon fill="#000000" stroke="#000000" points="239.0001,-140.9909 242.5,-150.991 246.0001,-140.991 239.0001,-140.9909"/>
</g>
<!-- NguiUtilsModule -->
<g id="node3" class="node">
<title>NguiUtilsModule</title>
<polygon fill="#8dd3c7" stroke="#000000" points="169.7702,-122 166.7702,-126 145.7702,-126 142.7702,-122 55.2298,-122 55.2298,-86 169.7702,-86 169.7702,-122"/>
<text text-anchor="middle" x="112.5" y="-99.8" font-family="Times,serif" font-size="14.00" fill="#000000">NguiUtilsModule</text>
</g>
<!-- NguiUtilsModule&#45;&gt;NguiCommonModule -->
<g id="edge3" class="edge">
<title>NguiUtilsModule&#45;&gt;NguiCommonModule</title>
<path fill="none" stroke="#000000" d="M169.9623,-104C176.1492,-104 180.2525,-104 180.2525,-104 180.2525,-104 180.2525,-140.8939 180.2525,-140.8939"/>
<polygon fill="#000000" stroke="#000000" points="176.7525,-140.8938 180.2525,-150.8939 183.7525,-140.8939 176.7525,-140.8938"/>
</g>
<!-- NguiInviewModule  -->
<g id="node5" class="node">
<title>NguiInviewModule </title>
<polygon fill="#fb8072" stroke="#000000" points="446.4194,-252 316.5806,-252 316.5806,-216 446.4194,-216 446.4194,-252"/>
<text text-anchor="middle" x="381.5" y="-229.8" font-family="Times,serif" font-size="14.00" fill="#000000">NguiInviewModule </text>
</g>
<!-- NguiCommonModule&#45;&gt;NguiInviewModule  -->
<g id="edge4" class="edge">
<title>NguiCommonModule&#45;&gt;NguiInviewModule </title>
<path fill="none" stroke="#000000" stroke-dasharray="5,2" d="M305.6226,-187.1061C305.6226,-206.3391 305.6226,-234 305.6226,-234 305.6226,-234 306.7097,-234 306.7097,-234"/>
<polygon fill="#000000" stroke="#000000" points="306.494,-237.5001 316.4939,-234 306.4939,-230.5001 306.494,-237.5001"/>
</g>
<!-- NguiListModule  -->
<g id="node6" class="node">
<title>NguiListModule </title>
<polygon fill="#fb8072" stroke="#000000" points="298.8255,-252 186.1745,-252 186.1745,-216 298.8255,-216 298.8255,-252"/>
<text text-anchor="middle" x="242.5" y="-229.8" font-family="Times,serif" font-size="14.00" fill="#000000">NguiListModule </text>
</g>
<!-- NguiCommonModule&#45;&gt;NguiListModule  -->
<g id="edge5" class="edge">
<title>NguiCommonModule&#45;&gt;NguiListModule </title>
<path fill="none" stroke="#000000" stroke-dasharray="5,2" d="M242.5,-187.1061C242.5,-187.1061 242.5,-205.991 242.5,-205.991"/>
<polygon fill="#000000" stroke="#000000" points="239.0001,-205.9909 242.5,-215.991 246.0001,-205.991 239.0001,-205.9909"/>
</g>
<!-- NguiUtilsModule  -->
<g id="node7" class="node">
<title>NguiUtilsModule </title>
<polygon fill="#fb8072" stroke="#000000" points="167.7703,-252 49.2297,-252 49.2297,-216 167.7703,-216 167.7703,-252"/>
<text text-anchor="middle" x="108.5" y="-229.8" font-family="Times,serif" font-size="14.00" fill="#000000">NguiUtilsModule </text>
</g>
<!-- NguiCommonModule&#45;&gt;NguiUtilsModule  -->
<g id="edge6" class="edge">
<title>NguiCommonModule&#45;&gt;NguiUtilsModule </title>
<path fill="none" stroke="#000000" stroke-dasharray="5,2" d="M179.3775,-187.1061C179.3775,-206.3391 179.3775,-234 179.3775,-234 179.3775,-234 177.6735,-234 177.6735,-234"/>
<polygon fill="#000000" stroke="#000000" points="177.6735,-230.5001 167.6735,-234 177.6734,-237.5001 177.6735,-230.5001"/>
</g>
</g>
</svg>
