<?xml version="1.0" encoding="UTF-8" standalone="no"?>
<!DOCTYPE svg PUBLIC "-//W3C//DTD SVG 1.1//EN"
 "http://www.w3.org/Graphics/SVG/1.1/DTD/svg11.dtd">
<!-- Generated by graphviz version 2.47.3 (20210619.1520)
 -->
<!-- Title: dependencies Pages: 1 -->
<svg width="453pt" height="247pt"
 viewBox="0.00 0.00 453.00 246.80" xmlns="http://www.w3.org/2000/svg" xmlns:xlink="http://www.w3.org/1999/xlink">
<g id="graph0" class="graph" transform="scale(1 1) rotate(0) translate(4 242.8)">
<title>dependencies</title>
<polygon fill="white" stroke="transparent" points="-4,4 -4,-242.8 449,-242.8 449,4 -4,4"/>
<text text-anchor="middle" x="222.5" y="-8.2" font-family="sans-serif" font-size="14.00">dependencies</text>
<g id="clust1" class="cluster">
<title>cluster_NguiCommonModule</title>
<polygon fill="none" stroke="black" stroke-dasharray="1,5" points="8,-32.8 8,-230.8 437,-230.8 437,-32.8 8,-32.8"/>
</g>
<g id="clust3" class="cluster">
<title>cluster_NguiCommonModule_imports</title>
<polygon fill="none" stroke="black" points="22,-40.8 22,-92.8 424,-92.8 424,-40.8 22,-40.8"/>
</g>
<g id="clust4" class="cluster">
<title>cluster_NguiCommonModule_exports</title>
<polygon fill="none" stroke="black" points="16,-170.8 16,-222.8 429,-222.8 429,-170.8 16,-170.8"/>
</g>
<!-- NguiInviewModule -->
<g id="node1" class="node">
<title>NguiInviewModule</title>
<polygon fill="#8dd3c7" stroke="black" points="416.42,-84.8 413.42,-88.8 392.42,-88.8 389.42,-84.8 289.58,-84.8 289.58,-48.8 416.42,-48.8 416.42,-84.8"/>
<text text-anchor="middle" x="353" y="-62.6" font-family="Times,serif" font-size="14.00">NguiInviewModule</text>
</g>
<!-- NguiCommonModule -->
<g id="node4" class="node">
<title>NguiCommonModule</title>
<polygon fill="#8dd3c7" stroke="black" points="286.67,-149.8 283.67,-153.8 262.67,-153.8 259.67,-149.8 147.33,-149.8 147.33,-113.8 286.67,-113.8 286.67,-149.8"/>
<text text-anchor="middle" x="217" y="-127.6" font-family="Times,serif" font-size="14.00">NguiCommonModule</text>
</g>
<!-- NguiInviewModule&#45;&gt;NguiCommonModule -->
<g id="edge1" class="edge">
<title>NguiInviewModule&#45;&gt;NguiCommonModule</title>
<path fill="none" stroke="black" d="M289.5,-66.8C283.3,-66.8 279.25,-66.8 279.25,-66.8 279.25,-66.8 279.25,-103.69 279.25,-103.69"/>
<polygon fill="black" stroke="black" points="275.75,-103.69 279.25,-113.69 282.75,-103.69 275.75,-103.69"/>
</g>
<!-- NguiListModule -->
<g id="node2" class="node">
<title>NguiListModule</title>
<polygon fill="#8dd3c7" stroke="black" points="271.83,-84.8 268.83,-88.8 247.83,-88.8 244.83,-84.8 162.17,-84.8 162.17,-48.8 271.83,-48.8 271.83,-84.8"/>
<text text-anchor="middle" x="217" y="-62.6" font-family="Times,serif" font-size="14.00">NguiListModule</text>
</g>
<!-- NguiListModule&#45;&gt;NguiCommonModule -->
<g id="edge2" class="edge">
<title>NguiListModule&#45;&gt;NguiCommonModule</title>
<path fill="none" stroke="black" d="M217,-84.91C217,-84.91 217,-103.79 217,-103.79"/>
<polygon fill="black" stroke="black" points="213.5,-103.79 217,-113.79 220.5,-103.79 213.5,-103.79"/>
</g>
<!-- NguiUtilsModule -->
<g id="node3" class="node">
<title>NguiUtilsModule</title>
<polygon fill="#8dd3c7" stroke="black" points="144.27,-84.8 141.27,-88.8 120.27,-88.8 117.27,-84.8 29.73,-84.8 29.73,-48.8 144.27,-48.8 144.27,-84.8"/>
<text text-anchor="middle" x="87" y="-62.6" font-family="Times,serif" font-size="14.00">NguiUtilsModule</text>
</g>
<!-- NguiUtilsModule&#45;&gt;NguiCommonModule -->
<g id="edge3" class="edge">
<title>NguiUtilsModule&#45;&gt;NguiCommonModule</title>
<path fill="none" stroke="black" d="M144.46,-66.8C150.65,-66.8 154.75,-66.8 154.75,-66.8 154.75,-66.8 154.75,-103.69 154.75,-103.69"/>
<polygon fill="black" stroke="black" points="151.25,-103.69 154.75,-113.69 158.25,-103.69 151.25,-103.69"/>
</g>
<!-- NguiInviewModule  -->
<g id="node5" class="node">
<title>NguiInviewModule </title>
<polygon fill="#fb8072" stroke="black" points="420.92,-214.8 291.08,-214.8 291.08,-178.8 420.92,-178.8 420.92,-214.8"/>
<text text-anchor="middle" x="356" y="-192.6" font-family="Times,serif" font-size="14.00">NguiInviewModule </text>
</g>
<!-- NguiCommonModule&#45;&gt;NguiInviewModule  -->
<g id="edge4" class="edge">
<title>NguiCommonModule&#45;&gt;NguiInviewModule </title>
<path fill="none" stroke="black" stroke-dasharray="5,2" d="M280.12,-149.91C280.12,-169.14 280.12,-196.8 280.12,-196.8 280.12,-196.8 281.21,-196.8 281.21,-196.8"/>
<polygon fill="black" stroke="black" points="280.99,-200.3 290.99,-196.8 280.99,-193.3 280.99,-200.3"/>
</g>
<!-- NguiListModule  -->
<g id="node6" class="node">
<title>NguiListModule </title>
<polygon fill="#fb8072" stroke="black" points="273.33,-214.8 160.67,-214.8 160.67,-178.8 273.33,-178.8 273.33,-214.8"/>
<text text-anchor="middle" x="217" y="-192.6" font-family="Times,serif" font-size="14.00">NguiListModule </text>
</g>
<!-- NguiCommonModule&#45;&gt;NguiListModule  -->
<g id="edge5" class="edge">
<title>NguiCommonModule&#45;&gt;NguiListModule </title>
<path fill="none" stroke="black" stroke-dasharray="5,2" d="M217,-149.91C217,-149.91 217,-168.79 217,-168.79"/>
<polygon fill="black" stroke="black" points="213.5,-168.79 217,-178.79 220.5,-168.79 213.5,-168.79"/>
</g>
<!-- NguiUtilsModule  -->
<g id="node7" class="node">
<title>NguiUtilsModule </title>
<polygon fill="#fb8072" stroke="black" points="142.27,-214.8 23.73,-214.8 23.73,-178.8 142.27,-178.8 142.27,-214.8"/>
<text text-anchor="middle" x="83" y="-192.6" font-family="Times,serif" font-size="14.00">NguiUtilsModule </text>
</g>
<!-- NguiCommonModule&#45;&gt;NguiUtilsModule  -->
<g id="edge6" class="edge">
<title>NguiCommonModule&#45;&gt;NguiUtilsModule </title>
<path fill="none" stroke="black" stroke-dasharray="5,2" d="M153.88,-149.91C153.88,-169.14 153.88,-196.8 153.88,-196.8 153.88,-196.8 152.17,-196.8 152.17,-196.8"/>
<polygon fill="black" stroke="black" points="152.17,-193.3 142.17,-196.8 152.17,-200.3 152.17,-193.3"/>
</g>
</g>
</svg>
