<?xml version="1.0" encoding="UTF-8" standalone="no"?>
<!DOCTYPE svg PUBLIC "-//W3C//DTD SVG 1.1//EN"
 "http://www.w3.org/Graphics/SVG/1.1/DTD/svg11.dtd">
<!-- Generated by graphviz version 2.40.1 (20161225.0304)
 -->
<!-- Title: dependencies Pages: 1 -->
<svg width="504pt" height="284pt"
 viewBox="0.00 0.00 504.00 284.00" xmlns="http://www.w3.org/2000/svg" xmlns:xlink="http://www.w3.org/1999/xlink">
<g id="graph0" class="graph" transform="scale(1 1) rotate(0) translate(4 280)">
<title>dependencies</title>
<polygon fill="#ffffff" stroke="transparent" points="-4,4 -4,-280 500,-280 500,4 -4,4"/>
<text text-anchor="start" x="227.0091" y="-42.4" font-family="sans-serif" font-weight="bold" font-size="14.00" fill="#000000">Legend</text>
<polygon fill="#ffffb3" stroke="transparent" points="14,-10 14,-30 34,-30 34,-10 14,-10"/>
<text text-anchor="start" x="37.629" y="-15.4" font-family="sans-serif" font-size="14.00" fill="#000000"> &#160;Declarations</text>
<polygon fill="#8dd3c7" stroke="transparent" points="127,-10 127,-30 147,-30 147,-10 127,-10"/>
<text text-anchor="start" x="150.7251" y="-15.4" font-family="sans-serif" font-size="14.00" fill="#000000"> &#160;Module</text>
<polygon fill="#80b1d3" stroke="transparent" points="213,-10 213,-30 233,-30 233,-10 213,-10"/>
<text text-anchor="start" x="236.7812" y="-15.4" font-family="sans-serif" font-size="14.00" fill="#000000"> &#160;Bootstrap</text>
<polygon fill="#fdb462" stroke="transparent" points="310,-10 310,-30 330,-30 330,-10 310,-10"/>
<text text-anchor="start" x="333.6732" y="-15.4" font-family="sans-serif" font-size="14.00" fill="#000000"> &#160;Providers</text>
<polygon fill="#fb8072" stroke="transparent" points="406,-10 406,-30 426,-30 426,-10 406,-10"/>
<text text-anchor="start" x="429.7258" y="-15.4" font-family="sans-serif" font-size="14.00" fill="#000000"> &#160;Exports</text>
<g id="clust1" class="cluster">
<title>cluster_NguiUtilsModule</title>
<polygon fill="none" stroke="#000000" stroke-dasharray="1,5" points="39,-70 39,-268 457,-268 457,-70 39,-70"/>
</g>
<g id="clust2" class="cluster">
<title>cluster_NguiUtilsModule_declarations</title>
<polygon fill="none" stroke="#000000" points="311,-78 311,-130 449,-130 449,-78 311,-78"/>
</g>
<g id="clust5" class="cluster">
<title>cluster_NguiUtilsModule_exports</title>
<polygon fill="none" stroke="#000000" points="205,-208 205,-260 347,-260 347,-208 205,-208"/>
</g>
<g id="clust7" class="cluster">
<title>cluster_NguiUtilsModule_providers</title>
<polygon fill="none" stroke="#000000" points="47,-78 47,-130 303,-130 303,-78 47,-78"/>
</g>
<!-- NguiHighlightPipe -->
<g id="node1" class="node">
<title>NguiHighlightPipe</title>
<polygon fill="#ffffb3" stroke="#000000" points="441.0548,-122 318.9452,-122 318.9452,-86 441.0548,-86 441.0548,-122"/>
<text text-anchor="middle" x="380" y="-99.8" font-family="Times,serif" font-size="14.00" fill="#000000">NguiHighlightPipe</text>
</g>
<!-- NguiUtilsModule -->
<g id="node2" class="node">
<title>NguiUtilsModule</title>
<polygon fill="#8dd3c7" stroke="#000000" points="333.2702,-187 330.2702,-191 309.2702,-191 306.2702,-187 218.7298,-187 218.7298,-151 333.2702,-151 333.2702,-187"/>
<text text-anchor="middle" x="276" y="-164.8" font-family="Times,serif" font-size="14.00" fill="#000000">NguiUtilsModule</text>
</g>
<!-- NguiHighlightPipe&#45;&gt;NguiUtilsModule -->
<g id="edge1" class="edge">
<title>NguiHighlightPipe&#45;&gt;NguiUtilsModule</title>
<path fill="none" stroke="#000000" d="M326.054,-122.1061C326.054,-122.1061 326.054,-140.991 326.054,-140.991"/>
<polygon fill="#000000" stroke="#000000" points="322.5541,-140.9909 326.054,-150.991 329.5541,-140.991 322.5541,-140.9909"/>
</g>
<!-- NguiHighlightPipe  -->
<g id="node3" class="node">
<title>NguiHighlightPipe </title>
<polygon fill="#fb8072" stroke="#000000" points="339.054,-252 212.946,-252 212.946,-216 339.054,-216 339.054,-252"/>
<text text-anchor="middle" x="276" y="-229.8" font-family="Times,serif" font-size="14.00" fill="#000000">NguiHighlightPipe </text>
</g>
<!-- NguiUtilsModule&#45;&gt;NguiHighlightPipe  -->
<g id="edge2" class="edge">
<title>NguiUtilsModule&#45;&gt;NguiHighlightPipe </title>
<path fill="none" stroke="#000000" stroke-dasharray="5,2" d="M276,-187.1061C276,-187.1061 276,-205.991 276,-205.991"/>
<polygon fill="#000000" stroke="#000000" points="272.5001,-205.9909 276,-215.991 279.5001,-205.991 272.5001,-205.9909"/>
</g>
<!-- DynamicComponentService -->
<g id="node4" class="node">
<title>DynamicComponentService</title>
<ellipse fill="#fdb462" stroke="#000000" cx="175" cy="-104" rx="120.4091" ry="18"/>
<text text-anchor="middle" x="175" y="-99.8" font-family="Times,serif" font-size="14.00" fill="#000000">DynamicComponentService</text>
</g>
<!-- DynamicComponentService&#45;&gt;NguiUtilsModule -->
<g id="edge3" class="edge">
<title>DynamicComponentService&#45;&gt;NguiUtilsModule</title>
<path fill="none" stroke="#000000" d="M257.0348,-117.468C257.0348,-117.468 257.0348,-140.8642 257.0348,-140.8642"/>
<polygon fill="#000000" stroke="#000000" points="253.5349,-140.8641 257.0348,-150.8642 260.5349,-140.8642 253.5349,-140.8641"/>
</g>
</g>
</svg>
