<?xml version="1.0" encoding="UTF-8" standalone="no"?>
<!DOCTYPE svg PUBLIC "-//W3C//DTD SVG 1.1//EN"
 "http://www.w3.org/Graphics/SVG/1.1/DTD/svg11.dtd">
<!-- Generated by graphviz version 2.47.3 (20210619.1520)
 -->
<!-- Title: dependencies Pages: 1 -->
<svg width="442pt" height="247pt"
 viewBox="0.00 0.00 442.00 246.80" xmlns="http://www.w3.org/2000/svg" xmlns:xlink="http://www.w3.org/1999/xlink">
<g id="graph0" class="graph" transform="scale(1 1) rotate(0) translate(4 242.8)">
<title>dependencies</title>
<polygon fill="white" stroke="transparent" points="-4,4 -4,-242.8 438,-242.8 438,4 -4,4"/>
<text text-anchor="middle" x="217" y="-8.2" font-family="sans-serif" font-size="14.00">dependencies</text>
<g id="clust1" class="cluster">
<title>cluster_NguiUtilsModule</title>
<polygon fill="none" stroke="black" stroke-dasharray="1,5" points="8,-32.8 8,-230.8 426,-230.8 426,-32.8 8,-32.8"/>
</g>
<g id="clust2" class="cluster">
<title>cluster_NguiUtilsModule_declarations</title>
<polygon fill="none" stroke="black" points="280,-40.8 280,-92.8 418,-92.8 418,-40.8 280,-40.8"/>
</g>
<g id="clust5" class="cluster">
<title>cluster_NguiUtilsModule_exports</title>
<polygon fill="none" stroke="black" points="174,-170.8 174,-222.8 316,-222.8 316,-170.8 174,-170.8"/>
</g>
<g id="clust7" class="cluster">
<title>cluster_NguiUtilsModule_providers</title>
<polygon fill="none" stroke="black" points="16,-40.8 16,-92.8 272,-92.8 272,-40.8 16,-40.8"/>
</g>
<!-- NguiHighlightPipe -->
<g id="node1" class="node">
<title>NguiHighlightPipe</title>
<polygon fill="#ffffb3" stroke="black" points="410.05,-84.8 287.95,-84.8 287.95,-48.8 410.05,-48.8 410.05,-84.8"/>
<text text-anchor="middle" x="349" y="-62.6" font-family="Times,serif" font-size="14.00">NguiHighlightPipe</text>
</g>
<!-- NguiUtilsModule -->
<g id="node2" class="node">
<title>NguiUtilsModule</title>
<polygon fill="#8dd3c7" stroke="black" points="302.27,-149.8 299.27,-153.8 278.27,-153.8 275.27,-149.8 187.73,-149.8 187.73,-113.8 302.27,-113.8 302.27,-149.8"/>
<text text-anchor="middle" x="245" y="-127.6" font-family="Times,serif" font-size="14.00">NguiUtilsModule</text>
</g>
<!-- NguiHighlightPipe&#45;&gt;NguiUtilsModule -->
<g id="edge1" class="edge">
<title>NguiHighlightPipe&#45;&gt;NguiUtilsModule</title>
<path fill="none" stroke="black" d="M295.05,-84.91C295.05,-84.91 295.05,-103.79 295.05,-103.79"/>
<polygon fill="black" stroke="black" points="291.55,-103.79 295.05,-113.79 298.55,-103.79 291.55,-103.79"/>
</g>
<!-- NguiHighlightPipe  -->
<g id="node3" class="node">
<title>NguiHighlightPipe </title>
<polygon fill="#fb8072" stroke="black" points="308.05,-214.8 181.95,-214.8 181.95,-178.8 308.05,-178.8 308.05,-214.8"/>
<text text-anchor="middle" x="245" y="-192.6" font-family="Times,serif" font-size="14.00">NguiHighlightPipe </text>
</g>
<!-- NguiUtilsModule&#45;&gt;NguiHighlightPipe  -->
<g id="edge2" class="edge">
<title>NguiUtilsModule&#45;&gt;NguiHighlightPipe </title>
<path fill="none" stroke="black" stroke-dasharray="5,2" d="M245,-149.91C245,-149.91 245,-168.79 245,-168.79"/>
<polygon fill="black" stroke="black" points="241.5,-168.79 245,-178.79 248.5,-168.79 241.5,-168.79"/>
</g>
<!-- DynamicComponentService -->
<g id="node4" class="node">
<title>DynamicComponentService</title>
<ellipse fill="#fdb462" stroke="black" cx="144" cy="-66.8" rx="120.41" ry="18"/>
<text text-anchor="middle" x="144" y="-62.6" font-family="Times,serif" font-size="14.00">DynamicComponentService</text>
</g>
<!-- DynamicComponentService&#45;&gt;NguiUtilsModule -->
<g id="edge3" class="edge">
<title>DynamicComponentService&#45;&gt;NguiUtilsModule</title>
<path fill="none" stroke="black" d="M226.03,-80.27C226.03,-80.27 226.03,-103.66 226.03,-103.66"/>
<polygon fill="black" stroke="black" points="222.53,-103.66 226.03,-113.66 229.53,-103.66 222.53,-103.66"/>
</g>
</g>
</svg>
