<?xml version="1.0" encoding="UTF-8" standalone="no"?>
<!DOCTYPE svg PUBLIC "-//W3C//DTD SVG 1.1//EN"
 "http://www.w3.org/Graphics/SVG/1.1/DTD/svg11.dtd">
<!-- Generated by graphviz version 2.40.1 (20161225.0304)
 -->
<!-- Title: dependencies Pages: 1 -->
<svg width="848pt" height="284pt"
 viewBox="0.00 0.00 848.00 284.00" xmlns="http://www.w3.org/2000/svg" xmlns:xlink="http://www.w3.org/1999/xlink">
<g id="graph0" class="graph" transform="scale(1 1) rotate(0) translate(4 280)">
<title>dependencies</title>
<polygon fill="#ffffff" stroke="transparent" points="-4,4 -4,-280 844,-280 844,4 -4,4"/>
<text text-anchor="start" x="399.0091" y="-42.4" font-family="sans-serif" font-weight="bold" font-size="14.00" fill="#000000">Legend</text>
<polygon fill="#ffffb3" stroke="transparent" points="186,-10 186,-30 206,-30 206,-10 186,-10"/>
<text text-anchor="start" x="209.629" y="-15.4" font-family="sans-serif" font-size="14.00" fill="#000000"> &#160;Declarations</text>
<polygon fill="#8dd3c7" stroke="transparent" points="299,-10 299,-30 319,-30 319,-10 299,-10"/>
<text text-anchor="start" x="322.7251" y="-15.4" font-family="sans-serif" font-size="14.00" fill="#000000"> &#160;Module</text>
<polygon fill="#80b1d3" stroke="transparent" points="385,-10 385,-30 405,-30 405,-10 385,-10"/>
<text text-anchor="start" x="408.7812" y="-15.4" font-family="sans-serif" font-size="14.00" fill="#000000"> &#160;Bootstrap</text>
<polygon fill="#fdb462" stroke="transparent" points="482,-10 482,-30 502,-30 502,-10 482,-10"/>
<text text-anchor="start" x="505.6732" y="-15.4" font-family="sans-serif" font-size="14.00" fill="#000000"> &#160;Providers</text>
<polygon fill="#fb8072" stroke="transparent" points="578,-10 578,-30 598,-30 598,-10 578,-10"/>
<text text-anchor="start" x="601.7258" y="-15.4" font-family="sans-serif" font-size="14.00" fill="#000000"> &#160;Exports</text>
<g id="clust1" class="cluster">
<title>cluster_NguiInviewModule</title>
<polygon fill="none" stroke="#000000" stroke-dasharray="1,5" points="8,-70 8,-268 348,-268 348,-70 8,-70"/>
</g>
<g id="clust2" class="cluster">
<title>cluster_NguiInviewModule_declarations</title>
<polygon fill="none" stroke="#000000" points="20,-78 20,-130 337,-130 337,-78 20,-78"/>
</g>
<g id="clust6" class="cluster">
<title>cluster_NguiInviewModule_exports</title>
<polygon fill="none" stroke="#000000" points="16,-208 16,-260 340,-260 340,-208 16,-208"/>
</g>
<g id="clust9" class="cluster">
<title>cluster_NguiListModule</title>
<polygon fill="none" stroke="#000000" stroke-dasharray="1,5" points="356,-70 356,-268 552,-268 552,-70 356,-70"/>
</g>
<g id="clust10" class="cluster">
<title>cluster_NguiListModule_declarations</title>
<polygon fill="none" stroke="#000000" points="366,-78 366,-130 542,-130 542,-78 366,-78"/>
</g>
<g id="clust13" class="cluster">
<title>cluster_NguiListModule_exports</title>
<polygon fill="none" stroke="#000000" points="364,-208 364,-260 544,-260 544,-208 364,-208"/>
</g>
<g id="clust16" class="cluster">
<title>cluster_NguiUtilsModule</title>
<polygon fill="none" stroke="#000000" stroke-dasharray="1,5" points="560,-70 560,-195 832,-195 832,-70 560,-70"/>
</g>
<g id="clust21" class="cluster">
<title>cluster_NguiUtilsModule_providers</title>
<polygon fill="none" stroke="#000000" points="568,-78 568,-130 824,-130 824,-78 568,-78"/>
</g>
<!-- NguiInviewComponent -->
<g id="node1" class="node">
<title>NguiInviewComponent</title>
<polygon fill="#ffffb3" stroke="#000000" points="329.2021,-122 180.7979,-122 180.7979,-86 329.2021,-86 329.2021,-122"/>
<text text-anchor="middle" x="255" y="-99.8" font-family="Times,serif" font-size="14.00" fill="#000000">NguiInviewComponent</text>
</g>
<!-- NguiInviewModule -->
<g id="node3" class="node">
<title>NguiInviewModule</title>
<polygon fill="#8dd3c7" stroke="#000000" points="159.4201,-187 156.4201,-191 135.4201,-191 132.4201,-187 32.5799,-187 32.5799,-151 159.4201,-151 159.4201,-187"/>
<text text-anchor="middle" x="96" y="-164.8" font-family="Times,serif" font-size="14.00" fill="#000000">NguiInviewModule</text>
</g>
<!-- NguiInviewComponent&#45;&gt;NguiInviewModule -->
<g id="edge1" class="edge">
<title>NguiInviewComponent&#45;&gt;NguiInviewModule</title>
<path fill="none" stroke="#000000" d="M279.7003,-122.0225C279.7003,-139.3734 279.7003,-163 279.7003,-163 279.7003,-163 169.2192,-163 169.2192,-163"/>
<polygon fill="#000000" stroke="#000000" points="169.2193,-159.5001 159.2192,-163 169.2192,-166.5001 169.2193,-159.5001"/>
</g>
<!-- NguiInviewDirective -->
<g id="node2" class="node">
<title>NguiInviewDirective</title>
<polygon fill="#ffffb3" stroke="#000000" points="162.4524,-122 27.5476,-122 27.5476,-86 162.4524,-86 162.4524,-122"/>
<text text-anchor="middle" x="95" y="-99.8" font-family="Times,serif" font-size="14.00" fill="#000000">NguiInviewDirective</text>
</g>
<!-- NguiInviewDirective&#45;&gt;NguiInviewModule -->
<g id="edge2" class="edge">
<title>NguiInviewDirective&#45;&gt;NguiInviewModule</title>
<path fill="none" stroke="#000000" d="M96,-122.1061C96,-122.1061 96,-140.991 96,-140.991"/>
<polygon fill="#000000" stroke="#000000" points="92.5001,-140.9909 96,-150.991 99.5001,-140.991 92.5001,-140.9909"/>
</g>
<!-- NguiInviewComponent  -->
<g id="node4" class="node">
<title>NguiInviewComponent </title>
<polygon fill="#fb8072" stroke="#000000" points="331.7023,-252 180.2977,-252 180.2977,-216 331.7023,-216 331.7023,-252"/>
<text text-anchor="middle" x="256" y="-229.8" font-family="Times,serif" font-size="14.00" fill="#000000">NguiInviewComponent </text>
</g>
<!-- NguiInviewModule&#45;&gt;NguiInviewComponent  -->
<g id="edge3" class="edge">
<title>NguiInviewModule&#45;&gt;NguiInviewComponent </title>
<path fill="none" stroke="#000000" stroke-dasharray="5,2" d="M159.2173,-175C194.0505,-175 230.2997,-175 230.2997,-175 230.2997,-175 230.2997,-205.9775 230.2997,-205.9775"/>
<polygon fill="#000000" stroke="#000000" points="226.7998,-205.9774 230.2997,-215.9775 233.7998,-205.9775 226.7998,-205.9774"/>
</g>
<!-- NguiInviewDirective  -->
<g id="node5" class="node">
<title>NguiInviewDirective </title>
<polygon fill="#fb8072" stroke="#000000" points="162.4531,-252 23.5469,-252 23.5469,-216 162.4531,-216 162.4531,-252"/>
<text text-anchor="middle" x="93" y="-229.8" font-family="Times,serif" font-size="14.00" fill="#000000">NguiInviewDirective </text>
</g>
<!-- NguiInviewModule&#45;&gt;NguiInviewDirective  -->
<g id="edge4" class="edge">
<title>NguiInviewModule&#45;&gt;NguiInviewDirective </title>
<path fill="none" stroke="#000000" stroke-dasharray="5,2" d="M96,-187.1061C96,-187.1061 96,-205.991 96,-205.991"/>
<polygon fill="#000000" stroke="#000000" points="92.5001,-205.9909 96,-215.991 99.5001,-205.991 92.5001,-205.9909"/>
</g>
<!-- NguiDynPageComponent -->
<g id="node6" class="node">
<title>NguiDynPageComponent</title>
<polygon fill="#ffffb3" stroke="#000000" points="534.1484,-122 373.8516,-122 373.8516,-86 534.1484,-86 534.1484,-122"/>
<text text-anchor="middle" x="454" y="-99.8" font-family="Times,serif" font-size="14.00" fill="#000000">NguiDynPageComponent</text>
</g>
<!-- NguiListModule -->
<g id="node7" class="node">
<title>NguiListModule</title>
<polygon fill="#8dd3c7" stroke="#000000" points="508.8259,-187 505.8259,-191 484.8259,-191 481.8259,-187 399.1741,-187 399.1741,-151 508.8259,-151 508.8259,-187"/>
<text text-anchor="middle" x="454" y="-164.8" font-family="Times,serif" font-size="14.00" fill="#000000">NguiListModule</text>
</g>
<!-- NguiDynPageComponent&#45;&gt;NguiListModule -->
<g id="edge5" class="edge">
<title>NguiDynPageComponent&#45;&gt;NguiListModule</title>
<path fill="none" stroke="#000000" d="M454,-122.1061C454,-122.1061 454,-140.991 454,-140.991"/>
<polygon fill="#000000" stroke="#000000" points="450.5001,-140.9909 454,-150.991 457.5001,-140.991 450.5001,-140.9909"/>
</g>
<!-- NguiDynPageComponent  -->
<g id="node8" class="node">
<title>NguiDynPageComponent </title>
<polygon fill="#fb8072" stroke="#000000" points="536.1481,-252 371.8519,-252 371.8519,-216 536.1481,-216 536.1481,-252"/>
<text text-anchor="middle" x="454" y="-229.8" font-family="Times,serif" font-size="14.00" fill="#000000">NguiDynPageComponent </text>
</g>
<!-- NguiListModule&#45;&gt;NguiDynPageComponent  -->
<g id="edge6" class="edge">
<title>NguiListModule&#45;&gt;NguiDynPageComponent </title>
<path fill="none" stroke="#000000" stroke-dasharray="5,2" d="M454,-187.1061C454,-187.1061 454,-205.991 454,-205.991"/>
<polygon fill="#000000" stroke="#000000" points="450.5001,-205.9909 454,-215.991 457.5001,-205.991 450.5001,-205.9909"/>
</g>
<!-- DynamicComponentService -->
<g id="node9" class="node">
<title>DynamicComponentService</title>
<ellipse fill="#fdb462" stroke="#000000" cx="696" cy="-104" rx="120.4091" ry="18"/>
<text text-anchor="middle" x="696" y="-99.8" font-family="Times,serif" font-size="14.00" fill="#000000">DynamicComponentService</text>
</g>
<!-- NguiUtilsModule -->
<g id="node10" class="node">
<title>NguiUtilsModule</title>
<polygon fill="#8dd3c7" stroke="#000000" points="753.2702,-187 750.2702,-191 729.2702,-191 726.2702,-187 638.7298,-187 638.7298,-151 753.2702,-151 753.2702,-187"/>
<text text-anchor="middle" x="696" y="-164.8" font-family="Times,serif" font-size="14.00" fill="#000000">NguiUtilsModule</text>
</g>
<!-- DynamicComponentService&#45;&gt;NguiUtilsModule -->
<g id="edge7" class="edge">
<title>DynamicComponentService&#45;&gt;NguiUtilsModule</title>
<path fill="none" stroke="#000000" d="M696,-122.1061C696,-122.1061 696,-140.991 696,-140.991"/>
<polygon fill="#000000" stroke="#000000" points="692.5001,-140.9909 696,-150.991 699.5001,-140.991 692.5001,-140.9909"/>
</g>
</g>
</svg>
