<?xml version="1.0" encoding="UTF-8" standalone="no"?>
<!DOCTYPE svg PUBLIC "-//W3C//DTD SVG 1.1//EN"
 "http://www.w3.org/Graphics/SVG/1.1/DTD/svg11.dtd">
<!-- Generated by graphviz version 2.47.3 (20210619.1520)
 -->
<!-- Title: dependencies Pages: 1 -->
<svg width="2404pt" height="402pt"
 viewBox="0.00 0.00 2404.00 401.80" xmlns="http://www.w3.org/2000/svg" xmlns:xlink="http://www.w3.org/1999/xlink">
<g id="graph0" class="graph" transform="scale(1 1) rotate(0) translate(4 397.8)">
<title>dependencies</title>
<polygon fill="white" stroke="transparent" points="-4,4 -4,-397.8 2400,-397.8 2400,4 -4,4"/>
<text text-anchor="middle" x="1198" y="-8.2" font-family="sans-serif" font-size="14.00">dependencies</text>
<g id="clust1" class="cluster">
<title>cluster_NguiCommonModule</title>
<polygon fill="none" stroke="black" stroke-dasharray="1,5" points="140,-108.8 140,-385.8 569,-385.8 569,-108.8 140,-108.8"/>
</g>
<g id="clust3" class="cluster">
<title>cluster_NguiCommonModule_imports</title>
<polygon fill="none" stroke="black" points="286,-116.8 286,-233.8 561,-233.8 561,-116.8 286,-116.8"/>
</g>
<g id="clust4" class="cluster">
<title>cluster_NguiCommonModule_exports</title>
<polygon fill="none" stroke="black" points="148,-325.8 148,-377.8 561,-377.8 561,-325.8 148,-325.8"/>
</g>
<g id="clust7" class="cluster">
<title>cluster_NguiInviewModule</title>
<polygon fill="none" stroke="black" stroke-dasharray="1,5" points="577,-173.8 577,-241.8 1242,-241.8 1242,-173.8 577,-173.8"/>
</g>
<g id="clust8" class="cluster">
<title>cluster_NguiInviewModule_declarations</title>
<polygon fill="none" stroke="black" points="917,-181.8 917,-233.8 1234,-233.8 1234,-181.8 917,-181.8"/>
</g>
<g id="clust12" class="cluster">
<title>cluster_NguiInviewModule_exports</title>
<polygon fill="none" stroke="black" points="585,-181.8 585,-233.8 909,-233.8 909,-181.8 585,-181.8"/>
</g>
<g id="clust15" class="cluster">
<title>cluster_NguiListModule</title>
<polygon fill="none" stroke="black" stroke-dasharray="1,5" points="577,-249.8 577,-317.8 2388,-317.8 2388,-249.8 577,-249.8"/>
</g>
<g id="clust16" class="cluster">
<title>cluster_NguiListModule_declarations</title>
<polygon fill="none" stroke="black" points="1495,-257.8 1495,-309.8 2380,-309.8 2380,-257.8 1495,-257.8"/>
</g>
<g id="clust23" class="cluster">
<title>cluster_NguiListModule_exports</title>
<polygon fill="none" stroke="black" points="585,-257.8 585,-309.8 1487,-309.8 1487,-257.8 585,-257.8"/>
</g>
<g id="clust26" class="cluster">
<title>cluster_NguiUtilsModule</title>
<polygon fill="none" stroke="black" stroke-dasharray="1,5" points="8,-32.8 8,-100.8 576,-100.8 576,-32.8 8,-32.8"/>
</g>
<g id="clust27" class="cluster">
<title>cluster_NguiUtilsModule_declarations</title>
<polygon fill="none" stroke="black" points="430,-40.8 430,-92.8 568,-92.8 568,-40.8 430,-40.8"/>
</g>
<g id="clust30" class="cluster">
<title>cluster_NguiUtilsModule_exports</title>
<polygon fill="none" stroke="black" points="280,-40.8 280,-92.8 422,-92.8 422,-40.8 280,-40.8"/>
</g>
<g id="clust32" class="cluster">
<title>cluster_NguiUtilsModule_providers</title>
<polygon fill="none" stroke="black" points="16,-40.8 16,-92.8 272,-92.8 272,-40.8 16,-40.8"/>
</g>
<!-- NguiInviewModule -->
<g id="node1" class="node">
<title>NguiInviewModule</title>
<polygon fill="#8dd3c7" stroke="black" points="553.42,-160.8 550.42,-164.8 529.42,-164.8 526.42,-160.8 426.58,-160.8 426.58,-124.8 553.42,-124.8 553.42,-160.8"/>
<text text-anchor="middle" x="490" y="-138.6" font-family="Times,serif" font-size="14.00">NguiInviewModule</text>
</g>
<!-- NguiListModule -->
<g id="node2" class="node">
<title>NguiListModule</title>
<polygon fill="#8dd3c7" stroke="black" points="552.83,-225.8 549.83,-229.8 528.83,-229.8 525.83,-225.8 443.17,-225.8 443.17,-189.8 552.83,-189.8 552.83,-225.8"/>
<text text-anchor="middle" x="498" y="-203.6" font-family="Times,serif" font-size="14.00">NguiListModule</text>
</g>
<!-- NguiInviewModule&#45;&gt;NguiListModule -->
<g id="edge16" class="edge">
<title>NguiInviewModule&#45;&gt;NguiListModule</title>
<path fill="none" stroke="black" d="M498,-160.91C498,-160.91 498,-179.79 498,-179.79"/>
<polygon fill="black" stroke="black" points="494.5,-179.79 498,-189.79 501.5,-179.79 494.5,-179.79"/>
</g>
<!-- NguiCommonModule -->
<g id="node4" class="node">
<title>NguiCommonModule</title>
<polygon fill="#8dd3c7" stroke="black" points="450.67,-301.8 447.67,-305.8 426.67,-305.8 423.67,-301.8 311.33,-301.8 311.33,-265.8 450.67,-265.8 450.67,-301.8"/>
<text text-anchor="middle" x="381" y="-279.6" font-family="Times,serif" font-size="14.00">NguiCommonModule</text>
</g>
<!-- NguiInviewModule&#45;&gt;NguiCommonModule -->
<g id="edge1" class="edge">
<title>NguiInviewModule&#45;&gt;NguiCommonModule</title>
<path fill="none" stroke="black" d="M435.06,-160.94C435.06,-160.94 435.06,-255.73 435.06,-255.73"/>
<polygon fill="black" stroke="black" points="431.56,-255.72 435.06,-265.73 438.56,-255.73 431.56,-255.72"/>
</g>
<!-- NguiInviewComponent  -->
<g id="node10" class="node">
<title>NguiInviewComponent </title>
<polygon fill="#fb8072" stroke="black" points="744.7,-225.8 593.3,-225.8 593.3,-189.8 744.7,-189.8 744.7,-225.8"/>
<text text-anchor="middle" x="669" y="-203.6" font-family="Times,serif" font-size="14.00">NguiInviewComponent </text>
</g>
<!-- NguiInviewModule&#45;&gt;NguiInviewComponent  -->
<g id="edge9" class="edge">
<title>NguiInviewModule&#45;&gt;NguiInviewComponent </title>
<path fill="none" stroke="black" stroke-dasharray="5,2" d="M553.36,-153.8C604.85,-153.8 669,-153.8 669,-153.8 669,-153.8 669,-179.52 669,-179.52"/>
<polygon fill="black" stroke="black" points="665.5,-179.52 669,-189.52 672.5,-179.52 665.5,-179.52"/>
</g>
<!-- NguiInviewDirective  -->
<g id="node11" class="node">
<title>NguiInviewDirective </title>
<polygon fill="#fb8072" stroke="black" points="901.45,-225.8 762.55,-225.8 762.55,-189.8 901.45,-189.8 901.45,-225.8"/>
<text text-anchor="middle" x="832" y="-203.6" font-family="Times,serif" font-size="14.00">NguiInviewDirective </text>
</g>
<!-- NguiInviewModule&#45;&gt;NguiInviewDirective  -->
<g id="edge10" class="edge">
<title>NguiInviewModule&#45;&gt;NguiInviewDirective </title>
<path fill="none" stroke="black" stroke-dasharray="5,2" d="M553.53,-146.8C652.43,-146.8 832,-146.8 832,-146.8 832,-146.8 832,-179.5 832,-179.5"/>
<polygon fill="black" stroke="black" points="828.5,-179.5 832,-189.5 835.5,-179.5 828.5,-179.5"/>
</g>
<!-- NguiListModule&#45;&gt;NguiCommonModule -->
<g id="edge2" class="edge">
<title>NguiListModule&#45;&gt;NguiCommonModule</title>
<path fill="none" stroke="black" d="M447.08,-225.81C447.08,-225.81 447.08,-255.65 447.08,-255.65"/>
<polygon fill="black" stroke="black" points="443.58,-255.65 447.08,-265.65 450.58,-255.65 443.58,-255.65"/>
</g>
<!-- NguiAutocompleteComponent  -->
<g id="node17" class="node">
<title>NguiAutocompleteComponent </title>
<polygon fill="#fb8072" stroke="black" points="1287.14,-301.8 1094.86,-301.8 1094.86,-265.8 1287.14,-265.8 1287.14,-301.8"/>
<text text-anchor="middle" x="1191" y="-279.6" font-family="Times,serif" font-size="14.00">NguiAutocompleteComponent </text>
</g>
<!-- NguiListModule&#45;&gt;NguiAutocompleteComponent  -->
<g id="edge17" class="edge">
<title>NguiListModule&#45;&gt;NguiAutocompleteComponent </title>
<path fill="none" stroke="black" stroke-dasharray="5,2" d="M524.89,-225.98C524.89,-238.84 524.89,-253.8 524.89,-253.8 524.89,-253.8 1160.7,-253.8 1160.7,-253.8 1160.7,-253.8 1160.7,-255.66 1160.7,-255.66"/>
<polygon fill="black" stroke="black" points="1157.2,-255.66 1160.7,-265.66 1164.2,-255.66 1157.2,-255.66"/>
</g>
<!-- NguiInviewPageComponent  -->
<g id="node18" class="node">
<title>NguiInviewPageComponent </title>
<polygon fill="#fb8072" stroke="black" points="1076.41,-301.8 897.59,-301.8 897.59,-265.8 1076.41,-265.8 1076.41,-301.8"/>
<text text-anchor="middle" x="987" y="-279.6" font-family="Times,serif" font-size="14.00">NguiInviewPageComponent </text>
</g>
<!-- NguiListModule&#45;&gt;NguiInviewPageComponent  -->
<g id="edge18" class="edge">
<title>NguiListModule&#45;&gt;NguiInviewPageComponent </title>
<path fill="none" stroke="black" stroke-dasharray="5,2" d="M515.63,-225.85C515.63,-240.17 515.63,-257.8 515.63,-257.8 515.63,-257.8 913.06,-257.8 913.06,-257.8 913.06,-257.8 913.06,-258.59 913.06,-258.59"/>
<polygon fill="black" stroke="black" points="909.56,-255.74 913.06,-265.74 916.56,-255.74 909.56,-255.74"/>
</g>
<!-- NguiListDirective  -->
<g id="node19" class="node">
<title>NguiListDirective </title>
<polygon fill="#fb8072" stroke="black" points="879.86,-301.8 758.14,-301.8 758.14,-265.8 879.86,-265.8 879.86,-301.8"/>
<text text-anchor="middle" x="819" y="-279.6" font-family="Times,serif" font-size="14.00">NguiListDirective </text>
</g>
<!-- NguiListModule&#45;&gt;NguiListDirective  -->
<g id="edge19" class="edge">
<title>NguiListModule&#45;&gt;NguiListDirective </title>
<path fill="none" stroke="black" stroke-dasharray="5,2" d="M506.38,-226.08C506.38,-241.75 506.38,-261.8 506.38,-261.8 506.38,-261.8 821.23,-261.8 821.23,-261.8 821.23,-261.8 821.23,-262.18 821.23,-262.18"/>
<polygon fill="black" stroke="black" points="817.73,-255.63 821.23,-265.63 824.73,-255.63 817.73,-255.63"/>
</g>
<!-- NguiListItemDirective  -->
<g id="node20" class="node">
<title>NguiListItemDirective </title>
<polygon fill="#fb8072" stroke="black" points="740.51,-301.8 593.49,-301.8 593.49,-265.8 740.51,-265.8 740.51,-301.8"/>
<text text-anchor="middle" x="667" y="-279.6" font-family="Times,serif" font-size="14.00">NguiListItemDirective </text>
</g>
<!-- NguiListModule&#45;&gt;NguiListItemDirective  -->
<g id="edge20" class="edge">
<title>NguiListModule&#45;&gt;NguiListItemDirective </title>
<path fill="none" stroke="black" stroke-dasharray="5,2" d="M543.41,-225.81C543.41,-248.29 543.41,-283.8 543.41,-283.8 543.41,-283.8 583.32,-283.8 583.32,-283.8"/>
<polygon fill="black" stroke="black" points="583.32,-287.3 593.32,-283.8 583.32,-280.3 583.32,-287.3"/>
</g>
<!-- NguiVirtualListComponent  -->
<g id="node21" class="node">
<title>NguiVirtualListComponent </title>
<polygon fill="#fb8072" stroke="black" points="1479.26,-301.8 1304.74,-301.8 1304.74,-265.8 1479.26,-265.8 1479.26,-301.8"/>
<text text-anchor="middle" x="1392" y="-279.6" font-family="Times,serif" font-size="14.00">NguiVirtualListComponent </text>
</g>
<!-- NguiListModule&#45;&gt;NguiVirtualListComponent  -->
<g id="edge21" class="edge">
<title>NguiListModule&#45;&gt;NguiVirtualListComponent </title>
<path fill="none" stroke="black" stroke-dasharray="5,2" d="M534.15,-225.86C534.15,-237.24 534.15,-249.8 534.15,-249.8 534.15,-249.8 1392,-249.8 1392,-249.8 1392,-249.8 1392,-255.61 1392,-255.61"/>
<polygon fill="black" stroke="black" points="1388.5,-255.61 1392,-265.61 1395.5,-255.61 1388.5,-255.61"/>
</g>
<!-- NguiUtilsModule -->
<g id="node3" class="node">
<title>NguiUtilsModule</title>
<polygon fill="#8dd3c7" stroke="black" points="408.27,-160.8 405.27,-164.8 384.27,-164.8 381.27,-160.8 293.73,-160.8 293.73,-124.8 408.27,-124.8 408.27,-160.8"/>
<text text-anchor="middle" x="351" y="-138.6" font-family="Times,serif" font-size="14.00">NguiUtilsModule</text>
</g>
<!-- NguiUtilsModule&#45;&gt;NguiCommonModule -->
<g id="edge3" class="edge">
<title>NguiUtilsModule&#45;&gt;NguiCommonModule</title>
<path fill="none" stroke="black" d="M359.78,-160.94C359.78,-160.94 359.78,-255.73 359.78,-255.73"/>
<polygon fill="black" stroke="black" points="356.28,-255.72 359.78,-265.73 363.28,-255.73 356.28,-255.72"/>
</g>
<!-- NguiHighlightPipe  -->
<g id="node23" class="node">
<title>NguiHighlightPipe </title>
<polygon fill="#fb8072" stroke="black" points="414.05,-84.8 287.95,-84.8 287.95,-48.8 414.05,-48.8 414.05,-84.8"/>
<text text-anchor="middle" x="351" y="-62.6" font-family="Times,serif" font-size="14.00">NguiHighlightPipe </text>
</g>
<!-- NguiUtilsModule&#45;&gt;NguiHighlightPipe  -->
<g id="edge23" class="edge">
<title>NguiUtilsModule&#45;&gt;NguiHighlightPipe </title>
<path fill="none" stroke="black" stroke-dasharray="5,2" d="M351,-124.79C351,-124.79 351,-94.95 351,-94.95"/>
<polygon fill="black" stroke="black" points="354.5,-94.95 351,-84.95 347.5,-94.95 354.5,-94.95"/>
</g>
<!-- NguiInviewModule  -->
<g id="node5" class="node">
<title>NguiInviewModule </title>
<polygon fill="#fb8072" stroke="black" points="552.92,-369.8 423.08,-369.8 423.08,-333.8 552.92,-333.8 552.92,-369.8"/>
<text text-anchor="middle" x="488" y="-347.6" font-family="Times,serif" font-size="14.00">NguiInviewModule </text>
</g>
<!-- NguiCommonModule&#45;&gt;NguiInviewModule  -->
<g id="edge4" class="edge">
<title>NguiCommonModule&#45;&gt;NguiInviewModule </title>
<path fill="none" stroke="black" stroke-dasharray="5,2" d="M436.94,-302.02C436.94,-302.02 436.94,-323.53 436.94,-323.53"/>
<polygon fill="black" stroke="black" points="433.44,-323.53 436.94,-333.53 440.44,-323.53 433.44,-323.53"/>
</g>
<!-- NguiListModule  -->
<g id="node6" class="node">
<title>NguiListModule </title>
<polygon fill="#fb8072" stroke="black" points="405.33,-369.8 292.67,-369.8 292.67,-333.8 405.33,-333.8 405.33,-369.8"/>
<text text-anchor="middle" x="349" y="-347.6" font-family="Times,serif" font-size="14.00">NguiListModule </text>
</g>
<!-- NguiCommonModule&#45;&gt;NguiListModule  -->
<g id="edge5" class="edge">
<title>NguiCommonModule&#45;&gt;NguiListModule </title>
<path fill="none" stroke="black" stroke-dasharray="5,2" d="M358.29,-302.02C358.29,-302.02 358.29,-323.53 358.29,-323.53"/>
<polygon fill="black" stroke="black" points="354.79,-323.53 358.29,-333.53 361.79,-323.53 354.79,-323.53"/>
</g>
<!-- NguiUtilsModule  -->
<g id="node7" class="node">
<title>NguiUtilsModule </title>
<polygon fill="#fb8072" stroke="black" points="274.27,-369.8 155.73,-369.8 155.73,-333.8 274.27,-333.8 274.27,-369.8"/>
<text text-anchor="middle" x="215" y="-347.6" font-family="Times,serif" font-size="14.00">NguiUtilsModule </text>
</g>
<!-- NguiCommonModule&#45;&gt;NguiUtilsModule  -->
<g id="edge6" class="edge">
<title>NguiCommonModule&#45;&gt;NguiUtilsModule </title>
<path fill="none" stroke="black" stroke-dasharray="5,2" d="M311.21,-283.8C288.63,-283.8 269.29,-283.8 269.29,-283.8 269.29,-283.8 269.29,-323.58 269.29,-323.58"/>
<polygon fill="black" stroke="black" points="265.79,-323.58 269.29,-333.58 272.79,-323.58 265.79,-323.58"/>
</g>
<!-- NguiInviewComponent -->
<g id="node8" class="node">
<title>NguiInviewComponent</title>
<polygon fill="#ffffb3" stroke="black" points="1073.2,-225.8 924.8,-225.8 924.8,-189.8 1073.2,-189.8 1073.2,-225.8"/>
<text text-anchor="middle" x="999" y="-203.6" font-family="Times,serif" font-size="14.00">NguiInviewComponent</text>
</g>
<!-- NguiInviewComponent&#45;&gt;NguiInviewModule -->
<g id="edge7" class="edge">
<title>NguiInviewComponent&#45;&gt;NguiInviewModule</title>
<path fill="none" stroke="black" d="M999,-189.58C999,-169.43 999,-139.8 999,-139.8 999,-139.8 563.44,-139.8 563.44,-139.8"/>
<polygon fill="black" stroke="black" points="563.44,-136.3 553.44,-139.8 563.44,-143.3 563.44,-136.3"/>
</g>
<!-- NguiInviewDirective -->
<g id="node9" class="node">
<title>NguiInviewDirective</title>
<polygon fill="#ffffb3" stroke="black" points="1226.45,-225.8 1091.55,-225.8 1091.55,-189.8 1226.45,-189.8 1226.45,-225.8"/>
<text text-anchor="middle" x="1159" y="-203.6" font-family="Times,serif" font-size="14.00">NguiInviewDirective</text>
</g>
<!-- NguiInviewDirective&#45;&gt;NguiInviewModule -->
<g id="edge8" class="edge">
<title>NguiInviewDirective&#45;&gt;NguiInviewModule</title>
<path fill="none" stroke="black" d="M1159,-189.64C1159,-167.45 1159,-132.8 1159,-132.8 1159,-132.8 563.24,-132.8 563.24,-132.8"/>
<polygon fill="black" stroke="black" points="563.24,-129.3 553.24,-132.8 563.24,-136.3 563.24,-129.3"/>
</g>
<!-- NguiAutocompleteComponent -->
<g id="node12" class="node">
<title>NguiAutocompleteComponent</title>
<polygon fill="#ffffb3" stroke="black" points="2183.14,-301.8 1994.86,-301.8 1994.86,-265.8 2183.14,-265.8 2183.14,-301.8"/>
<text text-anchor="middle" x="2089" y="-279.6" font-family="Times,serif" font-size="14.00">NguiAutocompleteComponent</text>
</g>
<!-- NguiAutocompleteComponent&#45;&gt;NguiListModule -->
<g id="edge11" class="edge">
<title>NguiAutocompleteComponent&#45;&gt;NguiListModule</title>
<path fill="none" stroke="black" d="M2089,-265.75C2089,-251.43 2089,-233.8 2089,-233.8 2089,-233.8 487.86,-233.8 487.86,-233.8 487.86,-233.8 487.86,-233.01 487.86,-233.01"/>
<polygon fill="black" stroke="black" points="491.36,-235.86 487.86,-225.86 484.36,-235.86 491.36,-235.86"/>
</g>
<!-- NguiInviewPageComponent -->
<g id="node13" class="node">
<title>NguiInviewPageComponent</title>
<polygon fill="#ffffb3" stroke="black" points="1976.91,-301.8 1801.09,-301.8 1801.09,-265.8 1976.91,-265.8 1976.91,-301.8"/>
<text text-anchor="middle" x="1889" y="-279.6" font-family="Times,serif" font-size="14.00">NguiInviewPageComponent</text>
</g>
<!-- NguiInviewPageComponent&#45;&gt;NguiListModule -->
<g id="edge12" class="edge">
<title>NguiInviewPageComponent&#45;&gt;NguiListModule</title>
<path fill="none" stroke="black" d="M1889,-265.62C1889,-252.76 1889,-237.8 1889,-237.8 1889,-237.8 478.6,-237.8 478.6,-237.8 478.6,-237.8 478.6,-235.94 478.6,-235.94"/>
<polygon fill="black" stroke="black" points="482.1,-235.94 478.6,-225.94 475.1,-235.94 482.1,-235.94"/>
</g>
<!-- NguiListDirective -->
<g id="node14" class="node">
<title>NguiListDirective</title>
<polygon fill="#ffffb3" stroke="black" points="1782.86,-301.8 1665.14,-301.8 1665.14,-265.8 1782.86,-265.8 1782.86,-301.8"/>
<text text-anchor="middle" x="1724" y="-279.6" font-family="Times,serif" font-size="14.00">NguiListDirective</text>
</g>
<!-- NguiListDirective&#45;&gt;NguiListModule -->
<g id="edge13" class="edge">
<title>NguiListDirective&#45;&gt;NguiListModule</title>
<path fill="none" stroke="black" d="M1724,-265.74C1724,-254.36 1724,-241.8 1724,-241.8 1724,-241.8 469.35,-241.8 469.35,-241.8 469.35,-241.8 469.35,-235.99 469.35,-235.99"/>
<polygon fill="black" stroke="black" points="472.85,-235.99 469.35,-225.99 465.85,-235.99 472.85,-235.99"/>
</g>
<!-- NguiListItemDirective -->
<g id="node15" class="node">
<title>NguiListItemDirective</title>
<polygon fill="#ffffb3" stroke="black" points="1646.52,-301.8 1503.48,-301.8 1503.48,-265.8 1646.52,-265.8 1646.52,-301.8"/>
<text text-anchor="middle" x="1575" y="-279.6" font-family="Times,serif" font-size="14.00">NguiListItemDirective</text>
</g>
<!-- NguiListItemDirective&#45;&gt;NguiListModule -->
<g id="edge14" class="edge">
<title>NguiListItemDirective&#45;&gt;NguiListModule</title>
<path fill="none" stroke="black" d="M1575,-265.69C1575,-255.9 1575,-245.8 1575,-245.8 1575,-245.8 460.09,-245.8 460.09,-245.8 460.09,-245.8 460.09,-235.91 460.09,-235.91"/>
<polygon fill="black" stroke="black" points="463.59,-235.91 460.09,-225.91 456.59,-235.91 463.59,-235.91"/>
</g>
<!-- NguiVirtualListComponent -->
<g id="node16" class="node">
<title>NguiVirtualListComponent</title>
<polygon fill="#ffffb3" stroke="black" points="2372.26,-301.8 2201.74,-301.8 2201.74,-265.8 2372.26,-265.8 2372.26,-301.8"/>
<text text-anchor="middle" x="2287" y="-279.6" font-family="Times,serif" font-size="14.00">NguiVirtualListComponent</text>
</g>
<!-- NguiVirtualListComponent&#45;&gt;NguiListModule -->
<g id="edge15" class="edge">
<title>NguiVirtualListComponent&#45;&gt;NguiListModule</title>
<path fill="none" stroke="black" d="M2287,-265.52C2287,-249.85 2287,-229.8 2287,-229.8 2287,-229.8 497.12,-229.8 497.12,-229.8 497.12,-229.8 497.12,-229.42 497.12,-229.42"/>
<polygon fill="black" stroke="black" points="500.62,-235.97 497.12,-225.97 493.62,-235.97 500.62,-235.97"/>
</g>
<!-- NguiHighlightPipe -->
<g id="node22" class="node">
<title>NguiHighlightPipe</title>
<polygon fill="#ffffb3" stroke="black" points="560.05,-84.8 437.95,-84.8 437.95,-48.8 560.05,-48.8 560.05,-84.8"/>
<text text-anchor="middle" x="499" y="-62.6" font-family="Times,serif" font-size="14.00">NguiHighlightPipe</text>
</g>
<!-- NguiHighlightPipe&#45;&gt;NguiUtilsModule -->
<g id="edge22" class="edge">
<title>NguiHighlightPipe&#45;&gt;NguiUtilsModule</title>
<path fill="none" stroke="black" d="M437.85,-66.8C427.7,-66.8 420.41,-66.8 420.41,-66.8 420.41,-66.8 420.41,-142.8 420.41,-142.8 420.41,-142.8 418.32,-142.8 418.32,-142.8"/>
<polygon fill="black" stroke="black" points="418.32,-139.3 408.32,-142.8 418.32,-146.3 418.32,-139.3"/>
</g>
<!-- DynamicComponentService -->
<g id="node24" class="node">
<title>DynamicComponentService</title>
<ellipse fill="#fdb462" stroke="black" cx="144" cy="-66.8" rx="120.41" ry="18"/>
<text text-anchor="middle" x="144" y="-62.6" font-family="Times,serif" font-size="14.00">DynamicComponentService</text>
</g>
<!-- DynamicComponentService&#45;&gt;NguiUtilsModule -->
<g id="edge24" class="edge">
<title>DynamicComponentService&#45;&gt;NguiUtilsModule</title>
<path fill="none" stroke="black" d="M210.16,-82.18C210.16,-104.39 210.16,-142.8 210.16,-142.8 210.16,-142.8 283.71,-142.8 283.71,-142.8"/>
<polygon fill="black" stroke="black" points="283.71,-146.3 293.71,-142.8 283.71,-139.3 283.71,-146.3"/>
</g>
</g>
</svg>
