<?xml version="1.0" encoding="UTF-8" standalone="no"?>
<!DOCTYPE svg PUBLIC "-//W3C//DTD SVG 1.1//EN"
 "http://www.w3.org/Graphics/SVG/1.1/DTD/svg11.dtd">
<!-- Generated by graphviz version 2.40.1 (20161225.0304)
 -->
<!-- Title: dependencies Pages: 1 -->
<svg width="1505pt" height="355pt"
 viewBox="0.00 0.00 1505.00 355.00" xmlns="http://www.w3.org/2000/svg" xmlns:xlink="http://www.w3.org/1999/xlink">
<g id="graph0" class="graph" transform="scale(1 1) rotate(0) translate(4 351)">
<title>dependencies</title>
<polygon fill="#ffffff" stroke="transparent" points="-4,4 -4,-351 1501,-351 1501,4 -4,4"/>
<text text-anchor="start" x="727.5091" y="-42.4" font-family="sans-serif" font-weight="bold" font-size="14.00" fill="#000000">Legend</text>
<polygon fill="#ffffb3" stroke="transparent" points="514.5,-10 514.5,-30 534.5,-30 534.5,-10 514.5,-10"/>
<text text-anchor="start" x="538.129" y="-15.4" font-family="sans-serif" font-size="14.00" fill="#000000"> &#160;Declarations</text>
<polygon fill="#8dd3c7" stroke="transparent" points="627.5,-10 627.5,-30 647.5,-30 647.5,-10 627.5,-10"/>
<text text-anchor="start" x="651.2251" y="-15.4" font-family="sans-serif" font-size="14.00" fill="#000000"> &#160;Module</text>
<polygon fill="#80b1d3" stroke="transparent" points="713.5,-10 713.5,-30 733.5,-30 733.5,-10 713.5,-10"/>
<text text-anchor="start" x="737.2812" y="-15.4" font-family="sans-serif" font-size="14.00" fill="#000000"> &#160;Bootstrap</text>
<polygon fill="#fdb462" stroke="transparent" points="810.5,-10 810.5,-30 830.5,-30 830.5,-10 810.5,-10"/>
<text text-anchor="start" x="834.1732" y="-15.4" font-family="sans-serif" font-size="14.00" fill="#000000"> &#160;Providers</text>
<polygon fill="#fb8072" stroke="transparent" points="906.5,-10 906.5,-30 926.5,-30 926.5,-10 906.5,-10"/>
<text text-anchor="start" x="930.2258" y="-15.4" font-family="sans-serif" font-size="14.00" fill="#000000"> &#160;Exports</text>
<g id="clust1" class="cluster">
<title>cluster_NguiInviewModule</title>
<polygon fill="none" stroke="#000000" stroke-dasharray="1,5" points="8,-70 8,-271 348,-271 348,-70 8,-70"/>
</g>
<g id="clust2" class="cluster">
<title>cluster_NguiInviewModule_declarations</title>
<polygon fill="none" stroke="#000000" points="22,-78 22,-130 339,-130 339,-78 22,-78"/>
</g>
<g id="clust6" class="cluster">
<title>cluster_NguiInviewModule_exports</title>
<polygon fill="none" stroke="#000000" points="16,-211 16,-263 340,-263 340,-211 16,-211"/>
</g>
<g id="clust9" class="cluster">
<title>cluster_NguiListModule</title>
<polygon fill="none" stroke="#000000" stroke-dasharray="1,5" points="356,-138 356,-339 1063,-339 1063,-138 356,-138"/>
</g>
<g id="clust10" class="cluster">
<title>cluster_NguiListModule_declarations</title>
<polygon fill="none" stroke="#000000" points="367,-146 367,-198 1045,-198 1045,-146 367,-146"/>
</g>
<g id="clust16" class="cluster">
<title>cluster_NguiListModule_exports</title>
<polygon fill="none" stroke="#000000" points="364,-279 364,-331 1055,-331 1055,-279 364,-279"/>
</g>
<g id="clust19" class="cluster">
<title>cluster_NguiUtilsModule</title>
<polygon fill="none" stroke="#000000" stroke-dasharray="1,5" points="1071,-70 1071,-271 1489,-271 1489,-70 1071,-70"/>
</g>
<g id="clust20" class="cluster">
<title>cluster_NguiUtilsModule_declarations</title>
<polygon fill="none" stroke="#000000" points="1343,-78 1343,-130 1481,-130 1481,-78 1343,-78"/>
</g>
<g id="clust23" class="cluster">
<title>cluster_NguiUtilsModule_exports</title>
<polygon fill="none" stroke="#000000" points="1237,-211 1237,-263 1379,-263 1379,-211 1237,-211"/>
</g>
<g id="clust25" class="cluster">
<title>cluster_NguiUtilsModule_providers</title>
<polygon fill="none" stroke="#000000" points="1079,-78 1079,-130 1335,-130 1335,-78 1079,-78"/>
</g>
<!-- NguiInviewComponent -->
<g id="node1" class="node">
<title>NguiInviewComponent</title>
<polygon fill="#ffffb3" stroke="#000000" points="331.2021,-122 182.7979,-122 182.7979,-86 331.2021,-86 331.2021,-122"/>
<text text-anchor="middle" x="257" y="-99.8" font-family="Times,serif" font-size="14.00" fill="#000000">NguiInviewComponent</text>
</g>
<!-- NguiInviewModule -->
<g id="node3" class="node">
<title>NguiInviewModule</title>
<polygon fill="#8dd3c7" stroke="#000000" points="319.4201,-190 316.4201,-194 295.4201,-194 292.4201,-190 192.5799,-190 192.5799,-154 319.4201,-154 319.4201,-190"/>
<text text-anchor="middle" x="256" y="-167.8" font-family="Times,serif" font-size="14.00" fill="#000000">NguiInviewModule</text>
</g>
<!-- NguiInviewComponent&#45;&gt;NguiInviewModule -->
<g id="edge1" class="edge">
<title>NguiInviewComponent&#45;&gt;NguiInviewModule</title>
<path fill="none" stroke="#000000" d="M256,-122.2228C256,-122.2228 256,-143.7269 256,-143.7269"/>
<polygon fill="#000000" stroke="#000000" points="252.5001,-143.7269 256,-153.7269 259.5001,-143.727 252.5001,-143.7269"/>
</g>
<!-- NguiInviewDirective -->
<g id="node2" class="node">
<title>NguiInviewDirective</title>
<polygon fill="#ffffb3" stroke="#000000" points="164.4524,-122 29.5476,-122 29.5476,-86 164.4524,-86 164.4524,-122"/>
<text text-anchor="middle" x="97" y="-99.8" font-family="Times,serif" font-size="14.00" fill="#000000">NguiInviewDirective</text>
</g>
<!-- NguiInviewDirective&#45;&gt;NguiInviewModule -->
<g id="edge2" class="edge">
<title>NguiInviewDirective&#45;&gt;NguiInviewModule</title>
<path fill="none" stroke="#000000" d="M117.9921,-122.2667C117.9921,-140.5552 117.9921,-166 117.9921,-166 117.9921,-166 182.6509,-166 182.6509,-166"/>
<polygon fill="#000000" stroke="#000000" points="182.6509,-169.5001 192.6509,-166 182.6508,-162.5001 182.6509,-169.5001"/>
</g>
<!-- NguiInviewComponent  -->
<g id="node4" class="node">
<title>NguiInviewComponent </title>
<polygon fill="#fb8072" stroke="#000000" points="331.7023,-255 180.2977,-255 180.2977,-219 331.7023,-219 331.7023,-255"/>
<text text-anchor="middle" x="256" y="-232.8" font-family="Times,serif" font-size="14.00" fill="#000000">NguiInviewComponent </text>
</g>
<!-- NguiInviewModule&#45;&gt;NguiInviewComponent  -->
<g id="edge3" class="edge">
<title>NguiInviewModule&#45;&gt;NguiInviewComponent </title>
<path fill="none" stroke="#000000" stroke-dasharray="5,2" d="M256,-190.1061C256,-190.1061 256,-208.991 256,-208.991"/>
<polygon fill="#000000" stroke="#000000" points="252.5001,-208.9909 256,-218.991 259.5001,-208.991 252.5001,-208.9909"/>
</g>
<!-- NguiInviewDirective  -->
<g id="node5" class="node">
<title>NguiInviewDirective </title>
<polygon fill="#fb8072" stroke="#000000" points="162.4531,-255 23.5469,-255 23.5469,-219 162.4531,-219 162.4531,-255"/>
<text text-anchor="middle" x="93" y="-232.8" font-family="Times,serif" font-size="14.00" fill="#000000">NguiInviewDirective </text>
</g>
<!-- NguiInviewModule&#45;&gt;NguiInviewDirective  -->
<g id="edge4" class="edge">
<title>NguiInviewModule&#45;&gt;NguiInviewDirective </title>
<path fill="none" stroke="#000000" stroke-dasharray="5,2" d="M192.772,-178C140.1362,-178 73.7579,-178 73.7579,-178 73.7579,-178 73.7579,-208.9775 73.7579,-208.9775"/>
<polygon fill="#000000" stroke="#000000" points="70.258,-208.9774 73.7579,-218.9775 77.258,-208.9775 70.258,-208.9774"/>
</g>
<!-- NguiListModule -->
<g id="node10" class="node">
<title>NguiListModule</title>
<polygon fill="#8dd3c7" stroke="#000000" points="692.8259,-255 689.8259,-259 668.8259,-259 665.8259,-255 583.1741,-255 583.1741,-219 692.8259,-219 692.8259,-255"/>
<text text-anchor="middle" x="638" y="-232.8" font-family="Times,serif" font-size="14.00" fill="#000000">NguiListModule</text>
</g>
<!-- NguiInviewModule&#45;&gt;NguiListModule -->
<g id="edge9" class="edge">
<title>NguiInviewModule&#45;&gt;NguiListModule</title>
<path fill="none" stroke="#000000" d="M319.4062,-172C337.233,-172 351.8601,-172 351.8601,-172 351.8601,-172 351.8601,-237 351.8601,-237 351.8601,-237 573.1679,-237 573.1679,-237"/>
<polygon fill="#000000" stroke="#000000" points="573.1679,-240.5001 583.1679,-237 573.1679,-233.5001 573.1679,-240.5001"/>
</g>
<!-- NguiInviewPageComponent -->
<g id="node6" class="node">
<title>NguiInviewPageComponent</title>
<polygon fill="#ffffb3" stroke="#000000" points="1036.9143,-190 861.0857,-190 861.0857,-154 1036.9143,-154 1036.9143,-190"/>
<text text-anchor="middle" x="949" y="-167.8" font-family="Times,serif" font-size="14.00" fill="#000000">NguiInviewPageComponent</text>
</g>
<!-- NguiInviewPageComponent&#45;&gt;NguiListModule -->
<g id="edge5" class="edge">
<title>NguiInviewPageComponent&#45;&gt;NguiListModule</title>
<path fill="none" stroke="#000000" d="M864.9181,-190.2667C864.9181,-208.5552 864.9181,-234 864.9181,-234 864.9181,-234 702.9305,-234 702.9305,-234"/>
<polygon fill="#000000" stroke="#000000" points="702.9306,-230.5001 692.9305,-234 702.9305,-237.5001 702.9306,-230.5001"/>
</g>
<!-- NguiListDirective -->
<g id="node7" class="node">
<title>NguiListDirective</title>
<polygon fill="#ffffb3" stroke="#000000" points="842.8585,-190 725.1415,-190 725.1415,-154 842.8585,-154 842.8585,-190"/>
<text text-anchor="middle" x="784" y="-167.8" font-family="Times,serif" font-size="14.00" fill="#000000">NguiListDirective</text>
</g>
<!-- NguiListDirective&#45;&gt;NguiListModule -->
<g id="edge6" class="edge">
<title>NguiListDirective&#45;&gt;NguiListModule</title>
<path fill="none" stroke="#000000" d="M805.0597,-190.0091C805.0597,-206.0494 805.0597,-227 805.0597,-227 805.0597,-227 702.7016,-227 702.7016,-227"/>
<polygon fill="#000000" stroke="#000000" points="702.7016,-223.5001 692.7016,-227 702.7016,-230.5001 702.7016,-223.5001"/>
</g>
<!-- NguiListItemDirective -->
<g id="node8" class="node">
<title>NguiListItemDirective</title>
<polygon fill="#ffffb3" stroke="#000000" points="706.5156,-190 563.4844,-190 563.4844,-154 706.5156,-154 706.5156,-190"/>
<text text-anchor="middle" x="635" y="-167.8" font-family="Times,serif" font-size="14.00" fill="#000000">NguiListItemDirective</text>
</g>
<!-- NguiListItemDirective&#45;&gt;NguiListModule -->
<g id="edge7" class="edge">
<title>NguiListItemDirective&#45;&gt;NguiListModule</title>
<path fill="none" stroke="#000000" d="M638,-190.1061C638,-190.1061 638,-208.991 638,-208.991"/>
<polygon fill="#000000" stroke="#000000" points="634.5001,-208.9909 638,-218.991 641.5001,-208.991 634.5001,-208.9909"/>
</g>
<!-- NguiVirtualListComponent -->
<g id="node9" class="node">
<title>NguiVirtualListComponent</title>
<polygon fill="#ffffb3" stroke="#000000" points="545.2618,-190 374.7382,-190 374.7382,-154 545.2618,-154 545.2618,-190"/>
<text text-anchor="middle" x="460" y="-167.8" font-family="Times,serif" font-size="14.00" fill="#000000">NguiVirtualListComponent</text>
</g>
<!-- NguiVirtualListComponent&#45;&gt;NguiListModule -->
<g id="edge8" class="edge">
<title>NguiVirtualListComponent&#45;&gt;NguiListModule</title>
<path fill="none" stroke="#000000" d="M488.4603,-190.027C488.4603,-206.3976 488.4603,-228 488.4603,-228 488.4603,-228 573.1661,-228 573.1661,-228"/>
<polygon fill="#000000" stroke="#000000" points="573.1661,-231.5001 583.1661,-228 573.166,-224.5001 573.1661,-231.5001"/>
</g>
<!-- NguiInviewPageComponent  -->
<g id="node11" class="node">
<title>NguiInviewPageComponent </title>
<polygon fill="#fb8072" stroke="#000000" points="1047.4138,-323 868.5862,-323 868.5862,-287 1047.4138,-287 1047.4138,-323"/>
<text text-anchor="middle" x="958" y="-300.8" font-family="Times,serif" font-size="14.00" fill="#000000">NguiInviewPageComponent </text>
</g>
<!-- NguiListModule&#45;&gt;NguiInviewPageComponent  -->
<g id="edge10" class="edge">
<title>NguiListModule&#45;&gt;NguiInviewPageComponent </title>
<path fill="none" stroke="#000000" stroke-dasharray="5,2" d="M692.8035,-241C782.9456,-241 952.625,-241 952.625,-241 952.625,-241 952.625,-276.8314 952.625,-276.8314"/>
<polygon fill="#000000" stroke="#000000" points="949.1251,-276.8313 952.625,-286.8314 956.1251,-276.8314 949.1251,-276.8313"/>
</g>
<!-- NguiListDirective  -->
<g id="node12" class="node">
<title>NguiListDirective </title>
<polygon fill="#fb8072" stroke="#000000" points="850.8589,-323 729.1411,-323 729.1411,-287 850.8589,-287 850.8589,-323"/>
<text text-anchor="middle" x="790" y="-300.8" font-family="Times,serif" font-size="14.00" fill="#000000">NguiListDirective </text>
</g>
<!-- NguiListModule&#45;&gt;NguiListDirective  -->
<g id="edge11" class="edge">
<title>NguiListModule&#45;&gt;NguiListDirective </title>
<path fill="none" stroke="#000000" stroke-dasharray="5,2" d="M692.7883,-248C727.9991,-248 767.1903,-248 767.1903,-248 767.1903,-248 767.1903,-276.9648 767.1903,-276.9648"/>
<polygon fill="#000000" stroke="#000000" points="763.6904,-276.9648 767.1903,-286.9648 770.6904,-276.9649 763.6904,-276.9648"/>
</g>
<!-- NguiListItemDirective  -->
<g id="node13" class="node">
<title>NguiListItemDirective </title>
<polygon fill="#fb8072" stroke="#000000" points="711.5148,-323 564.4852,-323 564.4852,-287 711.5148,-287 711.5148,-323"/>
<text text-anchor="middle" x="638" y="-300.8" font-family="Times,serif" font-size="14.00" fill="#000000">NguiListItemDirective </text>
</g>
<!-- NguiListModule&#45;&gt;NguiListItemDirective  -->
<g id="edge12" class="edge">
<title>NguiListModule&#45;&gt;NguiListItemDirective </title>
<path fill="none" stroke="#000000" stroke-dasharray="5,2" d="M638,-255.2228C638,-255.2228 638,-276.7269 638,-276.7269"/>
<polygon fill="#000000" stroke="#000000" points="634.5001,-276.7269 638,-286.7269 641.5001,-276.727 634.5001,-276.7269"/>
</g>
<!-- NguiVirtualListComponent  -->
<g id="node14" class="node">
<title>NguiVirtualListComponent </title>
<polygon fill="#fb8072" stroke="#000000" points="546.2618,-323 371.7382,-323 371.7382,-287 546.2618,-287 546.2618,-323"/>
<text text-anchor="middle" x="459" y="-300.8" font-family="Times,serif" font-size="14.00" fill="#000000">NguiVirtualListComponent </text>
</g>
<!-- NguiListModule&#45;&gt;NguiVirtualListComponent  -->
<g id="edge13" class="edge">
<title>NguiListModule&#45;&gt;NguiVirtualListComponent </title>
<path fill="none" stroke="#000000" stroke-dasharray="5,2" d="M583.2145,-246C522.0496,-246 431.5397,-246 431.5397,-246 431.5397,-246 431.5397,-276.9775 431.5397,-276.9775"/>
<polygon fill="#000000" stroke="#000000" points="428.0398,-276.9774 431.5397,-286.9775 435.0398,-276.9775 428.0398,-276.9774"/>
</g>
<!-- NguiHighlightPipe -->
<g id="node15" class="node">
<title>NguiHighlightPipe</title>
<polygon fill="#ffffb3" stroke="#000000" points="1473.0548,-122 1350.9452,-122 1350.9452,-86 1473.0548,-86 1473.0548,-122"/>
<text text-anchor="middle" x="1412" y="-99.8" font-family="Times,serif" font-size="14.00" fill="#000000">NguiHighlightPipe</text>
</g>
<!-- NguiUtilsModule -->
<g id="node16" class="node">
<title>NguiUtilsModule</title>
<polygon fill="#8dd3c7" stroke="#000000" points="1365.2702,-190 1362.2702,-194 1341.2702,-194 1338.2702,-190 1250.7298,-190 1250.7298,-154 1365.2702,-154 1365.2702,-190"/>
<text text-anchor="middle" x="1308" y="-167.8" font-family="Times,serif" font-size="14.00" fill="#000000">NguiUtilsModule</text>
</g>
<!-- NguiHighlightPipe&#45;&gt;NguiUtilsModule -->
<g id="edge14" class="edge">
<title>NguiHighlightPipe&#45;&gt;NguiUtilsModule</title>
<path fill="none" stroke="#000000" d="M1358.054,-122.2228C1358.054,-122.2228 1358.054,-143.7269 1358.054,-143.7269"/>
<polygon fill="#000000" stroke="#000000" points="1354.5541,-143.7269 1358.054,-153.7269 1361.5541,-143.727 1354.5541,-143.7269"/>
</g>
<!-- NguiHighlightPipe  -->
<g id="node17" class="node">
<title>NguiHighlightPipe </title>
<polygon fill="#fb8072" stroke="#000000" points="1371.054,-255 1244.946,-255 1244.946,-219 1371.054,-219 1371.054,-255"/>
<text text-anchor="middle" x="1308" y="-232.8" font-family="Times,serif" font-size="14.00" fill="#000000">NguiHighlightPipe </text>
</g>
<!-- NguiUtilsModule&#45;&gt;NguiHighlightPipe  -->
<g id="edge15" class="edge">
<title>NguiUtilsModule&#45;&gt;NguiHighlightPipe </title>
<path fill="none" stroke="#000000" stroke-dasharray="5,2" d="M1308,-190.1061C1308,-190.1061 1308,-208.991 1308,-208.991"/>
<polygon fill="#000000" stroke="#000000" points="1304.5001,-208.9909 1308,-218.991 1311.5001,-208.991 1304.5001,-208.9909"/>
</g>
<!-- DynamicComponentService -->
<g id="node18" class="node">
<title>DynamicComponentService</title>
<ellipse fill="#fdb462" stroke="#000000" cx="1207" cy="-104" rx="120.4091" ry="18"/>
<text text-anchor="middle" x="1207" y="-99.8" font-family="Times,serif" font-size="14.00" fill="#000000">DynamicComponentService</text>
</g>
<!-- DynamicComponentService&#45;&gt;NguiUtilsModule -->
<g id="edge16" class="edge">
<title>DynamicComponentService&#45;&gt;NguiUtilsModule</title>
<path fill="none" stroke="#000000" d="M1289.0348,-117.4346C1289.0348,-117.4346 1289.0348,-143.9572 1289.0348,-143.9572"/>
<polygon fill="#000000" stroke="#000000" points="1285.5349,-143.9571 1289.0348,-153.9572 1292.5349,-143.9572 1285.5349,-143.9571"/>
</g>
</g>
</svg>
